<svg xmlns="http://www.w3.org/2000/svg" viewBox="0 0 557.66 99.56"><defs><style>.cls-1,.cls-4{fill:#f7bd1b;}.cls-1{stroke:#231f20;stroke-miterlimit:10;stroke-width:2px;}.cls-2{fill:#13110d;}.cls-3{fill:#ffefca;}</style></defs><g id="Layer_2" data-name="Layer 2"><g id="Layer_1-2" data-name="Layer 1"><path class="cls-1" d="M65.7,73q0,10.05-6.27,16.64-7.16,7.59-25.1,7.59c-.91,0-2.21,0-3.92-.06H26.53q-20.13,0-24-.82c-1-.21-1.58-.78-1.58-1.69Q1,88.79,1.68,77t.68-17.74q0-6.31-.65-23.78Q1.55,31,1.11,22l-.06-.77c0-.69.54-1.11,1.72-1.25s5.4-.22,12.63-.22q17.4,0,20.35.11,13.43.49,19.81,4.36Q64,29.44,64,41.77a14.3,14.3,0,0,1-2,6.82,28.07,28.07,0,0,1-3.71,5.12,13,13,0,0,1-2,2.08c0,.25.47.65,1.42,1.2a14.75,14.75,0,0,1,6,6.93A21.29,21.29,0,0,1,65.7,73ZM42.24,42.26q0-4.69-4.69-6.22a31.78,31.78,0,0,0-8.62-.82q-5.89,0-5.89.87c0,.69-.06,1.74-.19,3.14s-.19,2.45-.19,3.14q0,5.45.93,6.11c.4.32,2.71.49,6.92.49Q42.24,49,42.24,42.26Zm1.64,30.49q0-4.91-4.09-6.65C38,65.37,35.21,65,31.28,65q-7,0-7.64.52T23,72.21q0,6.44.71,7.12t7.86.68c3.92,0,6.69-.31,8.29-.93Q43.88,77.51,43.88,72.75Z"/><path class="cls-1" d="M148.41,58.35q0,17-10.86,28.54-11.07,11.67-28,11.67t-28-11.78Q70.61,75.26,70.61,58.35T81.53,29.82Q92.65,18,109.51,18t27.94,11.84Q148.42,41.49,148.41,58.35Zm-20.68-.11a20.51,20.51,0,0,0-5-13.91,16.75,16.75,0,0,0-13.26-6,16.57,16.57,0,0,0-13,6.22,20.52,20.52,0,0,0-5.18,13.8,20.37,20.37,0,0,0,4.86,13.91,17.59,17.59,0,0,0,26.46-.32A20.28,20.28,0,0,0,127.73,58.24Z"/><path class="cls-1" d="M232.32,58.35q0,17-10.86,28.54-11.07,11.67-28,11.67t-28-11.78q-10.91-11.52-10.91-28.43t10.91-28.53Q176.56,18,193.42,18t27.93,11.84Q232.32,41.49,232.32,58.35Zm-20.68-.11a20.51,20.51,0,0,0-5-13.91,16.75,16.75,0,0,0-13.26-6,16.57,16.57,0,0,0-13,6.22,20.52,20.52,0,0,0-5.18,13.8,20.42,20.42,0,0,0,4.85,13.91,17.59,17.59,0,0,0,26.46-.32A20.24,20.24,0,0,0,211.64,58.24Z"/><path class="cls-1" d="M307.61,93.49a2.91,2.91,0,0,1-2,3.05c-1.09.37-4,.55-8.62.55a61.94,61.94,0,0,1-9.82-.55,6.23,6.23,0,0,1-1.94-.57A4.73,4.73,0,0,1,284,94.41q-4-7.3-7.91-14.62-6.5-11.78-7.75-13-5.89,2.13-5.89,3,0,4.1.33,12.36t.32,12.41c0,1.13-.49,1.77-1.47,1.91a79.49,79.49,0,0,1-10.26.44,62.73,62.73,0,0,1-9.38-.44c-1.06-.22-1.58-.78-1.58-1.69q0-5.89.57-17.79t.57-17.84q0-6.31-.54-19t-.55-19c0-.8.38-1.2,1.15-1.2,1.12,0,2.83.05,5.1.16s4,.17,5.1.17,2.89-.06,5.18-.17,4-.16,5.13-.16c.62,0,.93.33.93,1q0,4-.41,12.19t-.41,12.2q0,4.7,2.56,4.69,6.5,0,10.1-3.55,2.67-2.61,5.4-9.54,1.74-5.3,5.73-15.61A2.4,2.4,0,0,1,288.51,20c.95,0,2.38.05,4.28.16s3.34.17,4.29.17,2.44,0,4.39-.11,3.39-.11,4.34-.11,1.31.42,1.31,1.25q0,1.8-2.3,8.79-6.76,20.61-15.54,25.75c-1.2.69-1.8,1.25-1.8,1.69q0-.06,10.06,16.37T307.61,93.49Z"/><path class="cls-1" d="M387.1,94.85c0,.76-.17,1.24-.5,1.42a4.23,4.23,0,0,1-1.52.27q-3.33.33-9.39.33a79.25,79.25,0,0,1-10.06-.33q-1.5-.33-1.5-1.47,0-4.3.41-13t.41-13c0-1.41-.41-2.23-1.2-2.45q-1.86-.44-13.21-.44t-13.31.44c-.8.18-1.2,1-1.2,2.45q0,4.26.27,12.74t.28,12.74a1.71,1.71,0,0,1-1.48,1.91,85.72,85.72,0,0,1-10.25.33,78.55,78.55,0,0,1-9.39-.33c-1-.18-1.58-.74-1.58-1.69q0-5.89.57-17.79T315,59.22q0-6.31-.55-19t-.54-19q0-1.2,1.14-1.2c1.13,0,2.83.05,5.1.16s4,.17,5.1.17,2.92-.06,5.27-.17,4.1-.16,5.26-.16c.62,0,.93.33.93,1q0,4.1-.6,12.25t-.6,12.25c0,1.27.34,2,1,2.23q1.41.43,14,.44,11.68,0,13.53-.44c.88-.21,1.31-1,1.31-2.23q0-3.93-.38-11.87t-.38-11.92c0-1.13.45-1.69,1.36-1.69s2.67.05,4.83.16,3.79.17,4.88.17,2.67-.06,4.83-.17,3.79-.16,4.88-.16,1.59.44,1.59,1.31q0,6.27-.52,18.93t-.52,19q0,6,.57,17.84T387.1,94.85Z"/><path class="cls-1" d="M416.94,71.5q0,4,.16,11.87t.16,11.81c0,.76-.45,1.22-1.36,1.36a63,63,0,0,1-8.35.33,63.6,63.6,0,0,1-8.4-.33c-.8-.14-1.29-.38-1.47-.71a6.27,6.27,0,0,1-.11-1.63c0-2.51.05-6.29.16-11.32s.17-8.83.17-11.38a199.28,199.28,0,0,0-1.2-24.66,9.87,9.87,0,0,1-.11-1.14c0-.73.49-1.1,1.47-1.1s2.57.11,4.67.33,3.66.33,4.71.33,2.64-.09,4.75-.27,3.69-.28,4.75-.28c.87,0,1.31.37,1.31,1.09,0,.15,0,.5-.11,1A222.71,222.71,0,0,0,416.94,71.5Z"/><path class="cls-1" d="M458.67,96.76a77.65,77.65,0,0,1-8.4-.22A2.67,2.67,0,0,1,448.53,95L436,70.35q-9.87-19.8-9.87-22.42,0-4.3.3-13t.3-12.95c0-1.35.36-2,1.09-2q3.27,0,9.93.27c4.44.18,7.76.27,10,.27.91,0,1.37.39,1.37,1.15q0,4.43-.63,13.28t-.63,13.29q0,3.38,11.08,24.17,3-5.4,6.82-13.26,5.12-10.59,5.12-13,0-4-.11-12t-.1-12c0-1,.16-1.53.49-1.64h1.74q3,0,9.09-.3t9.08-.3c1.09,0,1.64.44,1.64,1.31q0,4.2-.14,12.68t-.14,12.74q0,3.39-10.74,24.88Q477.44,79.35,469.42,95a4.83,4.83,0,0,1-.74,1.34,4.32,4.32,0,0,1-1.39.24C465.44,96.69,462.56,96.76,458.67,96.76Z"/><path class="cls-1" d="M556.66,79.57a70.59,70.59,0,0,1-.93,8.62q-1,6.82-1.75,8.13a2,2,0,0,1-1.8,1,12.89,12.89,0,0,1-1.63-.16q-4-.56-23.25-.55-4.2,0-12.49-.05t-12.44-.06c-1.2,0-1.8-.53-1.8-1.58q0-6.1.68-18.36t.69-18.36q0-6.21-.66-23.18-.16-4.37-.6-13l-.05-.77C500.55,20.42,501,20,502,20q4,0,12.14.22t12.14.22q4,0,12-.22t12-.22c1.89,0,3,.71,3.28,2.13q.27,1.25.84,7.61c.38,4.23.58,6.81.58,7.72a1,1,0,0,1-1.1,1.14l-1.14-.05q-14.52-1.2-26.08-1.2c-1.93,0-3.11.45-3.55,1.36a17.32,17.32,0,0,0-.27,4.2c0,2.48.37,4.11,1.09,4.91s1.8,1,3.55,1c.36,0,1.07,0,2.13-.08s1.92-.08,2.62-.08q6.87,0,13.91-.39l3-.27a28.05,28.05,0,0,1,2.94-.22c.88,0,1.31.42,1.31,1.26,0-.77-.32,2-1,8.34q-.43,4.36-.44,8.73c0,.73-.52,1.09-1.58,1.09l-4.91-.54q-3.11-.33-14.18-.33H525.5c-1.49,0-2.36.37-2.61,1.09q-.06.27-.06,3.39c0,2.76.18,4.54.55,5.34.62,1.38,2.94,2.2,7,2.46h8c1.92,0,4.79-.18,8.59-.52s6.64-.52,8.54-.52C556.26,77.61,556.66,78.27,556.66,79.57Z"/><path class="cls-2" d="M417.71,33.09a7.43,7.43,0,0,1-2-.26c-.28-.06-.41,0-.53.29a10.18,10.18,0,0,1-4.65,5.26,5.71,5.71,0,0,1-1.45.58.84.84,0,0,0-.6.54c-.23.53-.46,1-.7,1.56a1.22,1.22,0,0,1-1.12.76,1.15,1.15,0,0,1-1.12-.67c-.25-.51-.46-1-.69-1.55a1,1,0,0,0-.61-.63,9.22,9.22,0,0,1-5-3.76,9.83,9.83,0,0,1-1.09-2.05.42.42,0,0,0-.58-.3,9.3,9.3,0,0,1-2.73.24,6,6,0,0,1-5.74-7,8.9,8.9,0,0,1,4-6.37A15.64,15.64,0,0,1,399,16.84c.38-.06.36-.27.24-.55a7.7,7.7,0,0,1-.44-5.07,7.88,7.88,0,0,1,3.92-5.17c.39-.22.48-.43.28-.83a6.25,6.25,0,0,0-3.41-3.44.84.84,0,0,1-.55-1,.89.89,0,0,1,.79-.77,1.48,1.48,0,0,1,.91.23,7.33,7.33,0,0,1,4,4.25c.27.67.25.69.94.58a6.69,6.69,0,0,1,2.32,0c.33.06.49,0,.62-.38A7.27,7.27,0,0,1,413,.09a1,1,0,0,1,1.24.55.89.89,0,0,1-.57,1.15,6.21,6.21,0,0,0-3.3,3.29c-.32.6-.27.66.3,1a8.06,8.06,0,0,1,3.91,5.57,7.85,7.85,0,0,1-.52,4.64c-.17.39-.08.48.29.58a14.53,14.53,0,0,1,8.17,5.27,8.33,8.33,0,0,1,1.71,5.23,5.79,5.79,0,0,1-3.82,5.29A7.19,7.19,0,0,1,417.71,33.09Zm-6-14.79a6.63,6.63,0,0,0-3.36.79.71.71,0,0,0-.42.7,11.52,11.52,0,0,0,.21,1.31,19.14,19.14,0,0,0,3.09,6.51,7.71,7.71,0,0,0,7.88,3.45,3.88,3.88,0,0,0,3.27-4.62A6.35,6.35,0,0,0,421,23.16,12.9,12.9,0,0,0,411.68,18.3Zm-16,12.92a8,8,0,0,0,5.58-2.59A14.84,14.84,0,0,0,403.65,25a14.56,14.56,0,0,0,1.67-4.92c.08-.68-.05-.89-.67-1.19a6.34,6.34,0,0,0-2.91-.57,11.14,11.14,0,0,0-4.8,1.21A10.15,10.15,0,0,0,393,22.4c-.35.49-.94.75-1.17,1.38a9.86,9.86,0,0,0-.92,2.39,4.3,4.3,0,0,0,1.15,3.89A4.93,4.93,0,0,0,395.66,31.22Zm11.08,2.9a7.66,7.66,0,0,0,5.41-2.28c.12-.12.28-.22.21-.43a1,1,0,0,0-1-.41,11.86,11.86,0,0,1-5.42.92,11.52,11.52,0,0,1-4.05-.94,1.11,1.11,0,0,0-1,.39c-.13.28.13.4.28.54A7.73,7.73,0,0,0,406.74,34.12Zm5.71,0a10.18,10.18,0,0,1-11.59.1A6.88,6.88,0,0,0,407,37.47,6.74,6.74,0,0,0,412.45,34.14Zm-5.72-4a11.44,11.44,0,0,0,2.94-.46c.52-.14.54-.23.23-.65s-.53-.75-.78-1.13a.52.52,0,0,0-.55-.27,18.26,18.26,0,0,1-3.84,0,.56.56,0,0,0-.6.27c-.25.38-.52.76-.79,1.13s-.28.47.21.63A11.2,11.2,0,0,0,406.73,30.1Zm-.12-4.28h.9c.23,0,.34-.11.26-.33-.32-.79-.65-1.58-1-2.36-.07-.16-.22-.23-.3,0a22.3,22.3,0,0,1-1,2.32c-.11.24,0,.36.23.37Z"/><path class="cls-3" d="M411.68,18.3A12.9,12.9,0,0,1,421,23.16a6.35,6.35,0,0,1,1.39,3.28,3.88,3.88,0,0,1-3.27,4.62,7.71,7.71,0,0,1-7.88-3.45,19.14,19.14,0,0,1-3.09-6.51,11.52,11.52,0,0,1-.21-1.31.71.71,0,0,1,.42-.7A6.63,6.63,0,0,1,411.68,18.3Z"/><path class="cls-3" d="M395.66,31.22a4.93,4.93,0,0,1-3.57-1.16,4.3,4.3,0,0,1-1.15-3.89,9.86,9.86,0,0,1,.92-2.39c.23-.63.82-.89,1.17-1.38a10.15,10.15,0,0,1,3.91-2.86,11.14,11.14,0,0,1,4.8-1.21,6.34,6.34,0,0,1,2.91.57c.62.3.75.51.67,1.19A14.56,14.56,0,0,1,403.65,25a14.84,14.84,0,0,1-2.41,3.62A8,8,0,0,1,395.66,31.22Z"/><path class="cls-4" d="M406.74,34.12a7.73,7.73,0,0,1-5.55-2.21c-.15-.14-.41-.26-.28-.54a1.11,1.11,0,0,1,1-.39,11.52,11.52,0,0,0,4.05.94,11.86,11.86,0,0,0,5.42-.92,1,1,0,0,1,1,.41c.07.21-.09.31-.21.43A7.66,7.66,0,0,1,406.74,34.12Z"/><path class="cls-4" d="M412.45,34.14A6.74,6.74,0,0,1,407,37.47a6.88,6.88,0,0,1-6.12-3.23A10.18,10.18,0,0,0,412.45,34.14Z"/><path class="cls-4" d="M406.73,30.1a11.2,11.2,0,0,1-3.18-.47c-.49-.16-.51-.23-.21-.63s.54-.75.79-1.13a.56.56,0,0,1,.6-.27,18.26,18.26,0,0,0,3.84,0,.52.52,0,0,1,.55.27c.25.38.52.76.78,1.13s.29.51-.23.65A11.44,11.44,0,0,1,406.73,30.1Z"/><path class="cls-4" d="M406.61,25.82h-.86c-.25,0-.34-.13-.23-.37a22.3,22.3,0,0,0,1-2.32c.08-.23.23-.16.3,0,.33.78.66,1.57,1,2.36.08.22,0,.33-.26.33Z"/></g></g></svg>