<svg xmlns="http://www.w3.org/2000/svg" viewBox="0 0 411.08 436.48"><defs><style>.cls-1{fill:#c9c6b5;}.cls-2{fill:#784821;}.cls-3{fill:#9c5e2b;}.cls-4{fill:#963c52;}.cls-5{fill:#b34862;}.cls-6{fill:#fffcf2;}.cls-7{fill:#2e4d8c;}.cls-8{fill:#3b63b3;}.cls-9{fill:#724e91;}.cls-10{fill:#8757b3;}.cls-11{fill:#456642;}.cls-12{fill:#578053;}.cls-13{fill:#a8a04d;}.cls-14{fill:#bfb75f;}.cls-15{fill:#4f443b;}.cls-16{fill:#98c6d9;}.cls-17{fill:#8db36b;}.cls-18{fill:#465e2f;}.cls-19{fill:#526e37;}.cls-20{fill:#783e4c;}.cls-21{fill:#6e3744;}.cls-22{fill:#b57b4a;}</style></defs><g id="Layer_2" data-name="Layer 2"><g id="OBJECTS"><path class="cls-1" d="M408.39,400.14c-5.36,14.16-18.31,22-32.44,25.6-14.76,3.74-30.37,5.17-45.48,6.85A620.32,620.32,0,0,1,235.86,436c-31.83-1.35-63.46-5.17-95.13-8.29-15.63-1.55-31.29-2.92-47-3.75-14.19-.74-28.5-.46-42.59-2.55-14.74-2.17-29.64-6.75-40.52-17.48s-14.61-28-5.37-41.15a33.52,33.52,0,0,1,3-3.63q25.62-.17,51.24-.33c112.93-.85,225.87-.71,338.81-2.1C409,368.4,414.83,383.09,408.39,400.14Z"/><path class="cls-2" d="M79.83,384.17c-1.73-3.23-5.9-4.58-9.37-4.37a16.78,16.78,0,0,0-10.23,4.76c-2.73,2.48-5,5.46-7.5,8.17q-2.13,2.34-4.37,4.57c-1.57,1.56-3.43,2.94-4.32,5a6.23,6.23,0,0,0-.5,4c-.34.35-.66.7-1,1.08a3.63,3.63,0,0,0,2.53,6.09c4,.34,7.78-2.34,11-4.3a90.7,90.7,0,0,0,9.68-6.71C69,400,72.06,397.2,75,394.38,77.8,391.7,82.17,388.54,79.83,384.17Z"/><path class="cls-3" d="M59.66,376.71c-6.6-1.14-13.87-4-20.3-1.16a4.51,4.51,0,0,0-1.7,1.33,3.46,3.46,0,0,0-2,2.27,121,121,0,0,0-2.52,13.91,69.71,69.71,0,0,0-1,14.35,5,5,0,0,0,4.86,4.86c3.95.44,8.55,1.89,11.71-1.25,2.42-2.4,4.12-5.7,5.55-8.74,2.8-5.95,4.53-12.46,8.5-17.79C64.76,381.89,62.81,377.26,59.66,376.71Z"/><path class="cls-2" d="M321.25,384.17c1.73-3.23,5.89-4.58,9.36-4.37a16.75,16.75,0,0,1,10.23,4.76c2.73,2.48,5,5.46,7.5,8.17q2.15,2.34,4.38,4.57c1.57,1.56,3.43,2.94,4.31,5a6.23,6.23,0,0,1,.51,4c.33.35.65.7,1,1.08A3.62,3.62,0,0,1,356,413.5c-4,.34-7.79-2.34-11.06-4.3a91.59,91.59,0,0,1-9.67-6.71c-3.21-2.53-6.23-5.29-9.19-8.11C323.27,391.7,318.91,388.54,321.25,384.17Z"/><path class="cls-3" d="M341.41,376.71c6.61-1.14,13.87-4,20.3-1.16a4.62,4.62,0,0,1,1.71,1.33,3.45,3.45,0,0,1,2,2.27,116.84,116.84,0,0,1,2.52,13.91,69,69,0,0,1,1,14.35,5,5,0,0,1-4.87,4.86c-3.94.44-8.54,1.89-11.71-1.25-2.41-2.4-4.11-5.7-5.54-8.74-2.8-5.95-4.53-12.46-8.51-17.79C336.32,381.89,338.27,377.26,341.41,376.71Z"/><path class="cls-3" d="M58.28,163.82a96.83,96.83,0,0,1,0,10.08c-.26,3.55-.5,7.09-.74,10.65-.47,7.31-1.06,14.62-1.52,21.94-1.64,25.94-2.82,51.9-3.24,77.87q-.31,19.47-.08,38.94c.07,6.44.2,12.87.43,19.31.11,3.33.24,6.65.38,10,.13,3.13,0,6.35.83,9.46a1.2,1.2,0,0,1-.19,1.82c-.55.91-1.82,1.61-3.75,1.76a8.1,8.1,0,0,1-2.24-.17,52.15,52.15,0,0,1-10.72,5.78c-2.81,1.23-5.71,2.38-8.41,3.68-3.12,1.5-5.64,3.28-8.53,4.9-2.64,1.47-6.53-.2-5.53-2-.74-7.63.34-15.42.78-23,.46-7.91.93-15.83,1.5-23.74,2-28.42,4-56.84,6.17-85.26l6.25-83.34a2.53,2.53,0,0,1-.09-2.39c.75-1.6,3.34-2.15,5.88-1.94l.25,0a3,3,0,0,1,.52.08,3.8,3.8,0,0,1,.53-.11c3.18-.34,6.49.22,9.62.57,3.34.38,6.67.78,10,1.11C60,160.14,60.22,162.52,58.28,163.82Z"/><path class="cls-3" d="M389.27,377.46c1,1.82-2.89,3.49-5.53,2-2.89-1.61-5.41-3.4-8.52-4.89-2.71-1.31-5.61-2.46-8.42-3.69a51.92,51.92,0,0,1-10.72-5.77,8.06,8.06,0,0,1-2.24.16c-1.93-.15-3.2-.84-3.75-1.75a1.21,1.21,0,0,1-.19-1.83c.85-3.1.7-6.33.83-9.46q.21-5,.38-10c.23-6.44.36-12.87.43-19.3q.24-19.47-.08-39c-.42-25.95-1.59-51.91-3.23-77.86-.46-7.32-1.06-14.63-1.53-21.95-.23-3.54-.48-7.09-.74-10.63a99.86,99.86,0,0,1,0-10.09c-1.93-1.29-1.74-3.67,1.85-4,3.35-.33,6.68-.72,10-1.1,3.14-.36,6.45-.92,9.63-.57a4,4,0,0,1,.52.09,4.51,4.51,0,0,1,.53-.07l.24,0c2.55-.21,5.13.34,5.88,1.93a2.52,2.52,0,0,1-.09,2.4l6.25,83.34C383,273.84,385,302.26,387,330.68c.56,7.91,1,15.83,1.49,23.74C388.93,362,390,369.83,389.27,377.46Z"/><path class="cls-2" d="M387.6,381.34c-7.16,2.15-14.21,4.28-21.55,5.85-6.64,1.42-13.35,2.59-20.05,3.71q-18.74.63-37.5,1.05c-48.88,1.17-97.78,2.35-146.69,1.87q-66.16-.65-132-7.25c-1.36-.32-2.72-.65-4.07-1-3.8-1-13.49-2.79-10.25-9a3.94,3.94,0,0,1,3.24-2.27l.16-.15a43.92,43.92,0,0,1,13.8-8.74,72.75,72.75,0,0,1,9.1-3c3-.79,6.11-2,9.16-2.33a4.79,4.79,0,0,1,1,0c12.08-1.26,24.28-1.41,36.41-1.82s24.47-.91,36.7-1.22c43.67-1.13,87.35.1,131,2.77,20.76,1.27,41.67,2.3,62.4.08q7.58-.81,15.05-2.36c4.9-1,10.07-3,15.12-2.55,5.48.52,10.44,4,15.2,6.47,4.57,2.41,9.13,4.87,13.67,7.34a4.27,4.27,0,0,1,1.53.43c2.79,1.32,5.55,2.67,8.32,4a5,5,0,0,1,.7.34l.29.14s0,0,0,0l.43.3.27.2a2.82,2.82,0,0,1,.92,3A3.12,3.12,0,0,1,387.6,381.34Z"/><path class="cls-2" d="M378.76,274.2a40.88,40.88,0,0,0-7.61-4.19A82.58,82.58,0,0,0,356,264.49a4.56,4.56,0,0,0-2.16-.07,5.05,5.05,0,0,0-.55-.18c-9.49-2.36-19.48-2-29.21-2.19q-14.88-.35-29.76-.6-29.19-.52-58.39-.63c-39.1-.1-78.21.51-117.28,2.16q-16.56.69-33.13,1.67-8,.47-16,1c-2.86.2-5.71.39-8.56.6l-4,.29-.77.08a6.32,6.32,0,0,0-4.75-1.55,3.37,3.37,0,0,0-3.91.19c-4.22,2.85-9.53,4.38-14.23,6.32a38.76,38.76,0,0,0-6.23,3,13.93,13.93,0,0,0-2.1,1.7l-1.19-.1c-4.85-.38-6,7.64-1.16,8.55,22.6,4.24,46.18,3.91,69.06,3.07s45.82-2.8,68.74-4.14q69.12-4,138.46-2.12,39.19,1.13,78.31,4.17c3.18.24,5.9-2.89,5.9-5.9A5.81,5.81,0,0,0,378.76,274.2Z"/><path class="cls-4" d="M93.49,238.53c-3.31-10-6.2-20-8.87-30.17-2.58-9.87-5-19.81-7.12-29.79a23.27,23.27,0,0,0-1.84-6.35c-1.73-3.19-5.14-4.38-8.56-4a93.2,93.2,0,0,0-14.95,3.29,6.88,6.88,0,0,0-5.07,8c.51,3.55,2.06,6.76,3.24,10.12A96.68,96.68,0,0,1,53.2,200.2c1.66,7.4,3.14,14.79,5.3,22.07s4.57,14.21,6.77,21.35q1.65,5.31,3,10.69c.89,3.49,1.88,7.05,3.94,10.05,2.3,3.37,6.47,4.44,9.55,2.23a5.87,5.87,0,0,0,2-1.19l.06.05c.47-.53.95-1,1.44-1.56a8.88,8.88,0,0,0,.84-.61,68.15,68.15,0,0,0,8.69-9,4.51,4.51,0,0,0,.93-3.18C97.09,247.05,94.74,242.33,93.49,238.53Z"/><path class="cls-5" d="M82.07,260.18a2.85,2.85,0,0,0-.11-.39q-7.71-21-13.8-42.6c-2-7.1-3.8-14.24-5.62-21.39-.93-3.66-1.73-7.36-2.69-11s-1.83-7.25-3.8-10.37a3,3,0,0,0-1.45-1.23c-2.39-1.92-6.26-.74-9.31.26a30.18,30.18,0,0,0-4.48,1.76,4,4,0,0,0-2.74,1.94,6.79,6.79,0,0,0-2,4.41c-.17,2.24.79,4.57,1.38,6.67.67,2.39,1.34,4.77,2,7.16q2,7.16,3.91,14.32,3.86,14.34,7.49,28.74c1.95,7.76,3.66,15.6,6.15,23.19.11,1.17.22,2.35.31,3.52a4.36,4.36,0,0,0,2.61,4,4,4,0,0,0,3,1.62c5.28.22,10.71-1.52,15.71-3a5.31,5.31,0,0,0,3.93-6.19A5.11,5.11,0,0,0,82.07,260.18Z"/><path class="cls-6" d="M75.22,248.48c-5.87.78-11.66,2.82-17.37,4.37a.29.29,0,0,0,.16.56l8.42-2.29a68,68,0,0,1,8.79-2.07C75.58,249,75.59,248.43,75.22,248.48Z"/><path class="cls-6" d="M72.11,246.31Q65.18,248,58.32,250a.29.29,0,0,0,.16.56q6.84-2,13.79-3.65C72.63,246.78,72.47,246.22,72.11,246.31Z"/><path class="cls-7" d="M135.87,246.87c-.75-10.88-.92-21.65-.71-32.5.2-10.53.68-21.07,1.55-31.55.18-2.23.59-4.59-.12-6.83-1.17-3.7-5.43-6-10.3-6.77a186.82,186.82,0,0,0-21.92-1.77c-5.5-.19-9.38,2.28-10.08,6.15-.65,3.64.27,7.3.61,11a71.42,71.42,0,0,1-.06,11.33c-.53,7.8-1.31,15.53-1.11,23.38s.88,15.44,1.19,23.16c.16,3.83.2,7.65.09,11.48s-.1,7.53,1.6,11.16c1.9,4.06,7.26,6.5,12.36,5.36a11.06,11.06,0,0,0,3.25-.49l0,.07c.85-.36,1.72-.7,2.59-1a12.57,12.57,0,0,0,1.39-.32,106.3,106.3,0,0,0,15.48-6,4.49,4.49,0,0,0,2.49-2.81C137.59,256.41,136.15,251,135.87,246.87Z"/><path class="cls-8" d="M114.12,265.28c0,3.05-2.78,5.14-6,5.35-6,.4-12.63.92-18.55-.49a4.48,4.48,0,0,1-3-2.3,4.28,4.28,0,0,1-2-4.59l0-.21c0-.19.07-.39.09-.58.13-.82.26-1.63.37-2.45l.06-.38c0-.06,0-.13,0-.19-.1-.91-.19-1.83-.26-2.74,0-.19,0-.39,0-.58-.57-7.05-.55-14.14-.77-21.21q-.47-15.32-1.21-30.61-.36-7.65-.8-15.3c-.05-1-.11-1.93-.17-2.89l0-.58c0-.59-.07-1.18-.1-1.77,0-.19,0-.38,0-.57,0-.62-.07-1.22-.11-1.83,0-.12,0-.25,0-.37s0-.36-.05-.55c-.18-2-.47-4.19.19-6.11a7.18,7.18,0,0,1,3.35-4,5,5,0,0,1,3.6-1.34,39.62,39.62,0,0,1,5.52-.77c3.7-.32,8.39-.63,10.6,1.83a3.17,3.17,0,0,1,1.34,1.57,23.41,23.41,0,0,1,1.45,6.91c0,.2,0,.39,0,.58,0,.53.06,1,.08,1.58a5.44,5.44,0,0,1,0,.57l.07,1.64,0,.76c0,.19,0,.38,0,.58.11,3.45.1,6.91.21,10.36.26,7.6.49,15.2,1,22.79q1.23,20,4,39.92c0,.19,0,.38.08.57.12.85.24,1.71.35,2.56l.09.57c0,.33.09.66.14,1s.06.38.08.57.08.54.13.81,0,.28,0,.41A4.41,4.41,0,0,1,114.12,265.28Z"/><path class="cls-6" d="M107.58,179.12c-4.12-.12-8.25,0-12.36.24-2.88.19-5.74.49-8.6.89a40.45,40.45,0,0,0-5.08.74c0-.19,0-.36-.05-.55,1.28-.3,2.64-.4,3.86-.59,2.72-.4,5.45-.72,8.18-.94a128.38,128.38,0,0,1,14-.37C107.55,178.74,107.57,178.93,107.58,179.12Z"/><path class="cls-6" d="M107.69,181.27a120.52,120.52,0,0,0-26,2.49c0-.19,0-.38,0-.57a120,120,0,0,1,26-2.49A5.44,5.44,0,0,1,107.69,181.27Z"/><path class="cls-6" d="M107.81,184.25a88.42,88.42,0,0,0-12.5.38c-4.48.45-9,1.48-13.47,1.48l0-.58c4.52,0,9-1,13.5-1.48a91.22,91.22,0,0,1,12.48-.38C107.8,183.86,107.8,184.05,107.81,184.25Z"/><path class="cls-6" d="M113,257.89c-9.41,0-18.81-.33-28.19-1.19,0-.19,0-.39,0-.58,9.37.86,18.76,1.22,28.16,1.2C113,257.51,113,257.7,113,257.89Z"/><path class="cls-6" d="M85.06,260l.06-.38c0-.06,0-.13,0-.19,9.43.08,18.86,1.08,28.28,1l.09.57C104,261.1,94.53,260.1,85.06,260Z"/><path class="cls-6" d="M113.69,262.57q-6.19.49-12.43.76c-5.38.24-11.28.91-16.66-.29,0-.19.07-.39.09-.58a33.74,33.74,0,0,0,7.39.59c3.44,0,6.88-.18,10.32-.35q5.61-.27,11.21-.7C113.64,262.19,113.67,262.38,113.69,262.57Z"/><path class="cls-9" d="M153.65,248.89c-.94-8.88-1.52-17.71-1.86-26.62-.33-8.65-.49-17.32-.41-26a18.78,18.78,0,0,0-.37-5.6c-.89-3-3.65-4.57-6.73-4.89a87.91,87.91,0,0,0-13.77-.05,6,6,0,0,0-6,5.68c-.25,3,.48,6,.86,9a78.06,78.06,0,0,1,.45,9.3c0,6.43-.14,12.83.33,19.25s1.22,12.61,1.75,18.92c.26,3.14.46,6.27.56,9.41a24.94,24.94,0,0,0,1.48,9.06,6.2,6.2,0,0,0,8,3.61,5.6,5.6,0,0,0,2-.61l0,.05c.52-.35,1-.68,1.57-1a6.86,6.86,0,0,0,.86-.36,62,62,0,0,0,9.41-5.86,3.82,3.82,0,0,0,1.43-2.47C155.14,256.61,154,252.27,153.65,248.89Z"/><path class="cls-10" d="M139.38,264.69a1.84,1.84,0,0,0,0-.33q-2.62-18.84-3.75-37.83c-.36-6.24-.54-12.49-.73-18.74-.11-3.21-.08-6.42-.21-9.62s-.17-6.34-1.29-9.29a2.62,2.62,0,0,0-1-1.29c-1.71-2-5.35-1.77-8.22-1.5a29.45,29.45,0,0,0-4.28.63,3.69,3.69,0,0,0-2.79,1.1,5.83,5.83,0,0,0-2.6,3.28c-.59,1.82-.2,3.93-.09,5.78q.18,3.15.35,6.29.33,6.3.62,12.59.57,12.59.93,25.18c.2,6.78.16,13.58.85,20.33q-.19,1.49-.42,3a3.6,3.6,0,0,0,1.51,3.78,3.55,3.55,0,0,0,2.35,1.9c4.59,1.16,9.7.73,14.38.4,2.52-.17,4.67-1.9,4.67-4.4A4.13,4.13,0,0,0,139.38,264.69Z"/><path class="cls-6" d="M135.8,254.63c-1.77-1-3.92-.13-5.76.92-1.13-.38-2.25-.79-3.39-1.13l.9-.62a.1.1,0,0,1,0,0,12.24,12.24,0,0,0,3.52.08c1.36-.18,4.32-1.77,2.12-3.22a2.37,2.37,0,0,0-2.53.12,29,29,0,0,0-3.23,2.36l-.25,0a49.25,49.25,0,0,1-5.62-1.44.29.29,0,0,0-.16.55,53.24,53.24,0,0,0,5.33,1.45l-.34.24-.54.37a13.26,13.26,0,0,0-2.52-.42c-1-.05-5.15.06-4.76,1.92s3.63,1,4.68.59a14.8,14.8,0,0,0,2.71-1.47c1.13.31,2.23.73,3.34,1.12l-1.54,1q-.47.3-1,.57a7.72,7.72,0,0,0-3.68-.49c-.9.16-3.63,1.73-1.78,2.68.87.45,2.28-.2,3.1-.49a16.15,16.15,0,0,0,2.4-1.08l.87.31.94.31a6.69,6.69,0,0,1-4.83,1.79c-.36,0-.37.61,0,.57a10.31,10.31,0,0,0,3.43-.72,7.09,7.09,0,0,0,1.37-.88c.23-.18.46-.38.7-.56a4.68,4.68,0,0,0,3.22,0c.43-.22.7-.56.37-1-.71-.89-2.68-.26-3.44.2l-.23.16c-.59-.15-1.15-.36-1.72-.56l.76-.46c.56-.36,1.13-.74,1.72-1.09a15.35,15.35,0,0,0,3.47.81,2.87,2.87,0,0,0,2.57-.77A1,1,0,0,0,135.8,254.63Zm-6.21-2.34c.33-.25.7-.58,1-.81l.36-.24c.93-.68,1.63-.27,2.12,1.21-.83,1.17-3.16,1-4.8.78Zm-8.28,4a3.18,3.18,0,0,1-1.34-.09c-1.56-1,.09-1.33.71-1.5a8.47,8.47,0,0,1,3.17-.22,12.59,12.59,0,0,1,1.39.23A8.61,8.61,0,0,1,121.31,256.24Zm10.83,2c0,.44-1.11.37-1.93.26C130.88,258.24,132.11,257.88,132.14,258.23Zm-6.52-.09a8.46,8.46,0,0,1-2.68.93l-.48.11c-.33-.91-.19-1.41.41-1.5a2.82,2.82,0,0,1,1.53-.14,7.44,7.44,0,0,1,1.74.34Zm9.23-1.77c-.72.42-2.12,0-2.83-.22l-1.23-.35a8,8,0,0,1,2-.76,5.8,5.8,0,0,1,1.55-.16l.42.07C135.48,254.92,135.52,255.39,134.85,256.37Z"/><path class="cls-11" d="M169.9,244.7c-.64-10.69-1-21.3-1.25-32q-.35-15.61-.28-31.26a39.69,39.69,0,0,0-.25-6.73c-.59-3.56-2.45-5.51-4.52-5.89a33.64,33.64,0,0,0-9.24-.06c-2.32.23-3.87,3-4.05,6.84a92.29,92.29,0,0,0,.58,10.79c.26,3.71.3,7.46.3,11.19,0,7.74-.09,15.43.22,23.16s.82,15.18,1.18,22.77c.18,3.77.31,7.54.37,11.32a52.15,52.15,0,0,0,1,10.9c.92,3.86,3.24,5.85,5.34,4.34a2.69,2.69,0,0,0,1.35-.74l0,.07c.35-.42.71-.83,1.06-1.24a3.46,3.46,0,0,0,.57-.42,47.3,47.3,0,0,0,6.32-7.06,6,6,0,0,0,1-3C170.9,254,170.14,248.76,169.9,244.7Z"/><path class="cls-12" d="M163.38,265.19c0,3-1.56,5.09-3.39,5.3-3.4.39-7.11.91-10.45-.49a3.39,3.39,0,0,1-1.71-2.28,5.89,5.89,0,0,1-1.09-4.55l.12-1.44c.07-.71.13-1.43.18-2.14-.06-1-.12-2-.16-3.06,0-.47,0-.94-.07-1.42,0-.75-.05-1.51-.08-2.26-.19-5.9-.21-11.82-.3-17.72q-.27-15.15-.68-30.3-.21-7.58-.45-15.15c0-.9-.06-1.8-.1-2.71,0-.69,0-1.39-.06-2.09,0-.46,0-.92,0-1.38s0-.92-.05-1.39c0-1-.11-2.08-.15-3.16a17.49,17.49,0,0,1,.22-3.79,7.39,7.39,0,0,1,1.89-3.95,2.31,2.31,0,0,1,2-1.33,13.42,13.42,0,0,1,3.11-.75c2.09-.32,4.73-.63,6,1.81a3.16,3.16,0,0,1,.75,1.55,38,38,0,0,1,.81,6.81c.07,1.42.1,2.85.13,4.26v.1l0,1.53c0,.76,0,1.53,0,2.3,0,2.58,0,5.16.09,7.74.15,7.53.27,15.05.54,22.56q.62,17.55,1.89,35c.07.88.13,1.75.2,2.62,0,.45.07.91.1,1.37.13,1.67.27,3.35.41,5l.12,1.52a2.75,2.75,0,0,1,0,.41A7.41,7.41,0,0,1,163.38,265.19Z"/><path class="cls-6" d="M159.8,183.56c-.55,0-1.1,0-1.65,0-2.25.07-4.51,0-6.76-.11-1.72,0-3.45,0-5.17,0h-1.13c0-.46,0-.92-.05-1.39,0-1-.11-2.08-.15-3.16l14.78.35C159.74,180.72,159.77,182.15,159.8,183.56Z"/><path class="cls-6" d="M159.86,187.49a71.09,71.09,0,0,1-9.67-.38c-1.66,0-3.33-.08-5-.14,0-.69,0-1.39-.06-2.09l5,.24h1.15l1.14-.06a69.84,69.84,0,0,1,7.09.12h.35C159.85,186,159.85,186.72,159.86,187.49Z"/><path class="cls-6" d="M163.09,261.79a123.81,123.81,0,0,1-16.23-.06c.07-.71.13-1.43.18-2.14-.06-1-.12-2-.16-3.06l2.12,0c4.56,0,9.12.23,13.68.2C162.81,258.44,163,260.12,163.09,261.79Z"/><path class="cls-6" d="M162.58,255.4c-2.76,0-5.55-.22-8.24-.24l-2.69,0a46,46,0,0,1-4.84,0c0-.75-.05-1.51-.08-2.26q3.17.1,6.33.17h.13c2.38,0,4.75-.07,7.13-.14.69,0,1.37,0,2.06-.1C162.45,253.66,162.51,254.53,162.58,255.4Z"/><path class="cls-13" d="M266,226.14c8.29,1.05,16.53,1.69,24.86,2.07,8.08.37,16.17.54,24.26.45a14.88,14.88,0,0,1,5.23.41c2.76,1,4.27,4.06,4.57,7.48a118.35,118.35,0,0,1,0,15.3c-.17,3.84-2.3,6.41-5.3,6.7-2.84.28-5.58-.54-8.38-.95a60.1,60.1,0,0,0-8.68-.51c-6,0-12,.16-18-.36s-11.77-1.36-17.67-2q-4.38-.43-8.79-.62c-2.85-.11-5.78-.29-8.45-1.65a7.35,7.35,0,0,1-3.38-8.84,7.22,7.22,0,0,1,.58-2.23l-.06,0c.33-.57.64-1.16,1-1.74a9.09,9.09,0,0,1,.33-1,73,73,0,0,1,5.48-10.46,3.48,3.48,0,0,1,2.3-1.59C258.76,224.48,262.81,225.74,266,226.14Z"/><path class="cls-14" d="M251.2,242a1.15,1.15,0,0,1,.32,0q17.6,2.92,35.32,4.17c5.84.4,11.67.6,17.51.82,3,.11,6,.08,9,.22s5.91.2,8.67,1.44a2.55,2.55,0,0,1,1.2,1.16c1.9,1.9,1.65,5.94,1.41,9.14a40,40,0,0,1-.59,4.75,4.6,4.6,0,0,1-1,3.1,5.77,5.77,0,0,1-3.06,2.89c-1.71.65-3.67.22-5.41.1l-5.87-.39q-5.88-.37-11.75-.69-11.76-.63-23.52-1c-6.33-.22-12.69-.17-19-.95-.93.15-1.85.3-2.78.47a3.14,3.14,0,0,1-3.52-1.68,3.84,3.84,0,0,1-1.78-2.61c-1.08-5.1-.68-10.78-.37-16,.16-2.8,1.77-5.19,4.11-5.19A3,3,0,0,1,251.2,242Z"/><path class="cls-4" d="M275.59,203.75c8.3,1,16.54,1.6,24.86,1.95,8.08.35,16.18.52,24.27.43a15.63,15.63,0,0,1,5.23.39c2.76.93,4.27,3.84,4.57,7.06a105.58,105.58,0,0,1,0,14.45c-.17,3.62-2.3,6.05-5.3,6.32-2.84.27-5.59-.51-8.38-.9a63.05,63.05,0,0,0-8.68-.47c-6,0-12,.14-18-.35s-11.78-1.28-17.67-1.84c-2.93-.27-5.85-.48-8.79-.58s-5.78-.28-8.46-1.56a6.78,6.78,0,0,1-3.37-8.35,6.08,6.08,0,0,1,.58-2.1l-.06,0c.33-.54.64-1.1,1-1.65q.14-.44.33-.9a66.49,66.49,0,0,1,5.48-9.87,3.47,3.47,0,0,1,2.3-1.51C268.38,202.18,272.44,203.38,275.59,203.75Z"/><path class="cls-5" d="M260.83,218.73l.32,0q17.58,2.77,35.32,3.94c5.83.38,11.67.56,17.51.77,3,.11,6,.08,9,.22s5.92.18,8.68,1.35a2.51,2.51,0,0,1,1.2,1.09c1.89,1.8,1.65,5.62,1.4,8.63a33.83,33.83,0,0,1-.58,4.49,4.2,4.2,0,0,1-1,2.93,5.61,5.61,0,0,1-3.07,2.72c-1.7.62-3.67.21-5.4.1q-2.93-.19-5.87-.36-5.88-.36-11.75-.66-11.76-.58-23.52-1c-6.33-.2-12.69-.16-19-.89l-2.78.44a3.21,3.21,0,0,1-3.53-1.58,3.65,3.65,0,0,1-1.77-2.47c-1.08-4.81-.68-10.18-.38-15.09.17-2.63,1.78-4.89,4.11-4.89A3.35,3.35,0,0,1,260.83,218.73Z"/><path class="cls-9" d="M267.14,184.34c8.27,1,16.49,1.78,24.81,2.29,8.07.51,16.16.86,24.24,1a18.28,18.28,0,0,1,5.22.47,6.58,6.58,0,0,1,4.41,6.09,74.45,74.45,0,0,1-.26,12.22,5.48,5.48,0,0,1-5.45,5.21c-2.84.15-5.57-.57-8.36-1a73.7,73.7,0,0,0-8.66-.63c-6-.17-12-.19-18-.76s-11.75-1.39-17.63-2c-2.92-.31-5.84-.56-8.77-.72A24.61,24.61,0,0,1,250.3,205c-3-1.29-4.44-4.39-3.19-7.15a4.66,4.66,0,0,1,.62-1.76l0,0c.34-.45.66-.91,1-1.37a6.3,6.3,0,0,1,.35-.75,54,54,0,0,1,5.7-8.21,3.55,3.55,0,0,1,2.33-1.21C260,182.83,264,183.94,267.14,184.34Z"/><path class="cls-10" d="M252.05,196.63a1.73,1.73,0,0,1,.32,0q17.52,2.79,35.22,4.24c5.83.47,11.66.78,17.49,1.11,3,.16,6,.22,9,.41s5.91.31,8.64,1.37a2.37,2.37,0,0,1,1.17,1c1.86,1.57,1.53,4.79,1.22,7.33a23.26,23.26,0,0,1-.69,3.78,3.19,3.19,0,0,1-1.09,2.45,5.33,5.33,0,0,1-3.12,2.23c-1.72.48-3.67.08-5.4-.06l-5.87-.46q-5.87-.45-11.73-.85-11.74-.81-23.49-1.44c-6.32-.34-12.68-.47-19-1.25q-1.4.14-2.79.3a3.43,3.43,0,0,1-3.49-1.43,3.15,3.15,0,0,1-1.72-2.13c-1-4.1-.46-8.63-.05-12.77a4.24,4.24,0,0,1,4.22-4A3.83,3.83,0,0,1,252.05,196.63Z"/><path class="cls-4" d="M164.58,182.82a2.17,2.17,0,0,0,0,.36q2.35,20.46,2.9,41c.17,6.76.12,13.52.1,20.28,0,3.47-.18,6.94-.16,10.4s-.05,6.85,1.16,10.08a2.77,2.77,0,0,0,1.18,1.43c2,2.26,6.31,2.11,9.74,1.93a38.43,38.43,0,0,0,5.13-.52A4.68,4.68,0,0,0,188,266.7a6.52,6.52,0,0,0,3.24-3.45c.78-1.95.4-4.24.35-6.24q-.09-3.4-.16-6.81-.13-6.81-.21-13.62-.15-13.62-.07-27.24c0-7.34.39-14.69-.17-22,.2-1.07.41-2.14.63-3.2A3.73,3.73,0,0,0,190,180a4.14,4.14,0,0,0-2.73-2.14c-5.42-1.42-11.53-1.14-17.12-1-3,.09-5.64,1.88-5.74,4.58A3.7,3.7,0,0,0,164.58,182.82Z"/><path class="cls-13" d="M317,337.94c4.1-8.3,7.8-16.68,11.29-25.24,3.38-8.31,6.6-16.7,9.56-25.17a18.23,18.23,0,0,1,2.35-5.32c2-2.55,5.38-3.09,8.67-2.25A102.28,102.28,0,0,1,363.1,285c3.49,1.47,5.08,4.55,4.22,7.78-.81,3.05-2.6,5.65-4,8.43a75.28,75.28,0,0,0-3.74,8.89c-2.27,6.26-4.37,12.55-7.11,18.64s-5.7,11.83-8.47,17.78q-2.06,4.44-3.88,9c-1.18,3-2.45,5.94-4.72,8.28a7,7,0,0,1-9.49.55A6.26,6.26,0,0,1,324,363l-.06,0c-.41-.53-.84-1.06-1.26-1.58a9.19,9.19,0,0,1-.76-.66,69.73,69.73,0,0,1-7.66-9.23,3.89,3.89,0,0,1-.61-2.94C312.73,344.91,315.43,341.1,317,337.94Z"/><path class="cls-14" d="M326.17,358.67a3.09,3.09,0,0,1,.14-.32q9.36-17.39,17.18-35.46c2.57-6,5-12,7.36-18,1.23-3.08,2.34-6.22,3.59-9.29s2.42-6.11,4.61-8.57a2.67,2.67,0,0,1,1.52-.87c2.49-1.34,6.15.27,9,1.6a34.21,34.21,0,0,1,4.19,2.21,4.17,4.17,0,0,1,2.49,2.11,6.1,6.1,0,0,1,1.53,4.17c0,2-1.17,3.9-1.94,5.67q-1.29,3-2.57,6c-1.71,4-3.39,8-5.07,12q-5,12-9.82,24.19c-2.59,6.53-4.93,13.18-8,19.49-.21,1-.42,2-.61,3.06a3.66,3.66,0,0,1-2.89,3.12,3.82,3.82,0,0,1-3.09,1c-5.15-.58-10.28-2.91-15-5-2.53-1.11-4.15-3.59-3.27-6A3.8,3.8,0,0,1,326.17,358.67Z"/><path class="cls-9" d="M286.44,331.63c4.24-8.32,8-16.8,11.45-25.52,3.37-8.46,6.51-17,9.34-25.76.6-1.85,1.07-3.92,2.38-5.38,2.16-2.43,6.31-2.37,10.42-.82a171.87,171.87,0,0,1,18,8.3c4.43,2.28,6.67,6,5.93,9.34-.71,3.19-2.66,5.69-4.17,8.46a59.59,59.59,0,0,0-3.74,9c-2.19,6.44-4.16,12.93-6.95,19.08s-5.86,11.89-8.7,17.88c-1.4,3-2.72,6-3.91,9.09s-2.44,6-5,8.16c-2.87,2.39-7.93,2-11.59-1.21a10.55,10.55,0,0,1-2.4-1.83l-.07,0c-.56-.67-1.13-1.32-1.7-2-.33-.27-.67-.56-1-.87a112,112,0,0,1-10.26-11.59,4.6,4.6,0,0,1-1-3.34C281.88,338.45,284.83,334.8,286.44,331.63Z"/><path class="cls-10" d="M298.22,354.83c0-.1.1-.21.16-.31q10.37-16.69,19.23-34.41c2.91-5.83,5.64-11.76,8.38-17.69,1.41-3,2.7-6.16,4.13-9.18s2.76-6,5.1-8.23a2.34,2.34,0,0,1,1.58-.66c2.58-1,6.19,1.35,9,3.25a38.65,38.65,0,0,1,4.11,3,5.08,5.08,0,0,1,2.4,2.65,7.3,7.3,0,0,1,1.32,4.66c-.14,2.09-1.4,3.91-2.26,5.64q-1.47,2.92-2.92,5.88-2.89,5.88-5.75,11.8-5.72,11.84-11.21,23.8c-3,6.44-5.68,13-9.15,19.16-.26,1-.53,2.07-.77,3.12a3.25,3.25,0,0,1-3.08,2.78,3.52,3.52,0,0,1-3.18.5c-5.16-1.5-10.2-4.84-14.85-7.82-2.5-1.61-4-4.5-3-6.92A3.6,3.6,0,0,1,298.22,354.83Z"/><path class="cls-4" d="M257.22,352.72c.93-7.8,1.5-15.56,1.84-23.39.33-7.6.48-15.23.4-22.83a14.79,14.79,0,0,1,.36-4.92c.89-2.6,3.62-4,6.65-4.3a99.7,99.7,0,0,1,13.61,0c3.4.17,5.69,2.17,5.95,5,.25,2.66-.48,5.25-.85,7.88a60.39,60.39,0,0,0-.45,8.17c0,5.65.14,11.28-.32,16.92s-1.21,11.08-1.73,16.63c-.26,2.76-.45,5.51-.55,8.27a19.67,19.67,0,0,1-1.47,8,6.37,6.37,0,0,1-7.86,3.17,5.82,5.82,0,0,1-2-.54l0,.05-1.56-.9a5.7,5.7,0,0,1-.84-.31,61.64,61.64,0,0,1-9.3-5.16,3.25,3.25,0,0,1-1.42-2.16C255.74,359.51,256.87,355.69,257.22,352.72Z"/><path class="cls-5" d="M296.09,306.51c0,.17,0,.34,0,.51a.13.13,0,0,1,0,.06l-.09,1.44,0,.57c-.08,1.15-.15,2.3-.22,3.46-.22,3.68-.43,7.37-.61,11.05q-.57,11.07-.92,22.14c-.2,6-.15,11.93-.84,17.87.12.87.26,1.74.41,2.61a3,3,0,0,1-1.49,3.32,3.45,3.45,0,0,1-2.33,1.66c-4.53,1-9.58.64-14.2.36-2.48-.15-4.61-1.67-4.61-3.87a2.91,2.91,0,0,1,.21-1.07,2.83,2.83,0,0,1,0-.3q2.61-16.56,3.71-33.24c.35-5.49.53-11,.73-16.48.1-2.81.07-5.64.2-8.45,0-.21,0-.42,0-.63l0-.58c0-.47.05-.94.08-1.4,0-.19,0-.38,0-.57a16.12,16.12,0,0,1,1.1-5,2.38,2.38,0,0,1,1-1.13c1.69-1.79,5.29-1.56,8.13-1.33a33.14,33.14,0,0,1,4.22.55,4,4,0,0,1,2.76,1,5.31,5.31,0,0,1,2.56,2.88A10.7,10.7,0,0,1,296.09,306.51Z"/><path class="cls-6" d="M296.09,306.51c0,.17,0,.34,0,.51a.13.13,0,0,1,0,.06q-4.59-.18-9.17-.52c-3.57-.27-7.2-.52-10.76-1,0-.19,0-.38,0-.57,3.74.53,7.55.78,11.29,1Q291.76,306.35,296.09,306.51Z"/><path class="cls-6" d="M296,308.52l0,.57q-10-.4-19.92-1.57l0-.58Q286,308.11,296,308.52Z"/><path class="cls-7" d="M231.86,349.45c.83-9.39,1.34-18.72,1.65-28.14.29-9.15.43-18.32.35-27.47a23.88,23.88,0,0,1,.33-5.92,6.75,6.75,0,0,1,5.94-5.17,64.78,64.78,0,0,1,12.14-.06c3,.2,5.08,2.61,5.32,6,.22,3.21-.43,6.32-.76,9.49a94.69,94.69,0,0,0-.4,9.83c0,6.8.12,13.56-.29,20.36s-1.08,13.33-1.55,20c-.23,3.32-.4,6.63-.49,9.95a30.81,30.81,0,0,1-1.31,9.58c-1.2,3.39-4.24,5.15-7,3.82a4.51,4.51,0,0,1-1.77-.65l0,.06-1.39-1.09a5.87,5.87,0,0,1-.76-.37,54.14,54.14,0,0,1-8.29-6.21,4.16,4.16,0,0,1-1.27-2.6C230.55,357.62,231.55,353,231.86,349.45Z"/><path class="cls-8" d="M240.62,366.17c0-.12,0-.24,0-.36q2.52-19.92,3.58-40c.35-6.6.52-13.21.71-19.82.09-3.39.07-6.79.19-10.18s.17-6.7,1.24-9.82a2.65,2.65,0,0,1,1-1.36c1.63-2.14,5.1-1.87,7.85-1.59a25.88,25.88,0,0,1,4.08.66,3.4,3.4,0,0,1,2.66,1.17,6.07,6.07,0,0,1,2.48,3.47c.56,1.93.19,4.15.09,6.11q-.18,3.33-.33,6.66-.33,6.64-.6,13.3-.54,13.32-.89,26.63c-.19,7.17-.14,14.37-.81,21.51.13,1,.26,2.09.4,3.14a4,4,0,0,1-1.44,4,3.44,3.44,0,0,1-2.24,2c-4.38,1.23-9.26.77-13.73.43a4.67,4.67,0,0,1-4.45-4.66A4.5,4.5,0,0,1,240.62,366.17Z"/><path class="cls-9" d="M207.61,357.05c-.31-2.68.19-5.73.39-8.26.7-9.1,1.13-18.15,1.39-27.3.25-8.87.37-17.76.3-26.64a26.89,26.89,0,0,1,.28-5.75,6,6,0,0,1,5-5,48.39,48.39,0,0,1,10.28-.06c2.58.2,4.31,2.53,4.51,5.83a61.73,61.73,0,0,1-.65,9.21c-.28,3.15-.33,6.35-.33,9.53,0,6.6.1,13.16-.25,19.75s-.91,12.93-1.31,19.41c-.2,3.21-.34,6.42-.42,9.65a34.14,34.14,0,0,1-1.1,9.28c-.83,2.69-2.7,4.31-4.63,4.13l-.5.07a9.81,9.81,0,0,1-5.91-1.08c-1.61-1-2.33-2.45-3.42-3.8s-2.61-2.27-3.3-3.94A9.25,9.25,0,0,1,207.61,357.05Z"/><path class="cls-10" d="M213.42,365c0-.12,0-.23,0-.35q2.9-19.32,4.12-38.79c.4-6.41.59-12.82.81-19.23.11-3.29.09-6.58.23-9.87s.19-6.5,1.42-9.52a2.58,2.58,0,0,1,1.14-1.32c1.88-2.08,5.87-1.82,9-1.55a35.5,35.5,0,0,1,4.69.65,4.23,4.23,0,0,1,3.07,1.13,6.08,6.08,0,0,1,2.85,3.36c.64,1.87.22,4,.1,5.93q-.19,3.24-.38,6.46-.37,6.45-.68,12.9-.63,12.92-1,25.83c-.22,6.95-.17,13.93-.93,20.86.14,1,.29,2,.46,3a3.61,3.61,0,0,1-1.66,3.88,3.86,3.86,0,0,1-2.58,1.95c-5,1.19-10.65.74-15.79.41-2.76-.18-5.12-1.95-5.12-4.51A3.73,3.73,0,0,1,213.42,365Z"/><path class="cls-6" d="M234.55,360.92c-2.7-.33-5.41-.68-8.12-1-2.92-.33-5.88-.29-8.78-.72-.37,0-.52.5-.16.56,2.78.41,5.6.38,8.4.68s5.78.69,8.66,1C234.92,361.54,234.92,361,234.55,360.92Z"/><path class="cls-6" d="M232.65,362.07c-4.71-.63-9.46.2-14.18-.32-.37,0-.36.54,0,.58,4.72.52,9.47-.31,14.18.32C233,362.7,233,362.12,232.65,362.07Z"/><path class="cls-6" d="M229.61,363.66q-3.72.12-7.43.39c-.37,0-.37.6,0,.58q3.7-.28,7.43-.4A.29.29,0,0,0,229.61,363.66Z"/><path class="cls-6" d="M234.84,298.73q-6.76-.44-13.47-1.35c-.37-.05-.52.5-.16.55q6.79.94,13.63,1.38C235.21,299.33,235.21,298.76,234.84,298.73Z"/><path class="cls-6" d="M234.27,295.44a44.57,44.57,0,0,1-9.22-.92c-.36-.07-.52.48-.15.56a46,46,0,0,0,9.37.94A.29.29,0,0,0,234.27,295.44Z"/><path class="cls-6" d="M234.81,291.7c-2.55-.32-5.08-.72-7.6-1.18-.36-.06-.52.49-.16.56,2.58.47,5.16.87,7.76,1.2C235.18,292.32,235.17,291.75,234.81,291.7Z"/><path class="cls-11" d="M96.71,351c-1-7.29-1.67-14.53-2-21.85-.37-7.1-.54-14.22-.45-21.32a11.74,11.74,0,0,0-.4-4.6c-1-2.43-4-3.75-7.39-4a127.12,127.12,0,0,0-15.12,0c-3.79.15-6.33,2-6.62,4.66s.53,4.91.94,7.36a47.64,47.64,0,0,1,.5,7.63c0,5.28-.15,10.53.36,15.81S67.83,345,68.42,350.2c.29,2.57.5,5.14.61,7.72s.29,5.08,1.63,7.44c1.5,2.63,5.29,4,8.73,3a7.45,7.45,0,0,0,2.2-.51l0,.05c.57-.29,1.15-.56,1.73-.84a9.15,9.15,0,0,0,.94-.29,74.63,74.63,0,0,0,10.33-4.82,3,3,0,0,0,1.58-2C98.35,357.37,97.11,353.8,96.71,351Z"/><path class="cls-12" d="M81.27,365c0,2.06-2.36,3.47-5.12,3.61-5.14.27-10.75.62-15.79-.33a3.79,3.79,0,0,1-2.58-1.55,2.69,2.69,0,0,1-1.66-3.1c.17-.82.32-1.63.46-2.44,0-.11,0-.21,0-.31-.1-.77-.19-1.54-.26-2.31,0-.42-.08-.84-.11-1.26,0-.19,0-.39-.05-.58-.3-4.07-.32-8.16-.47-12.24q-.4-10.33-1-20.66c-.21-3.45-.43-6.89-.68-10.33l-.14-1.88c0-.78-.11-1.57-.17-2.35,0-.31-.05-.62-.07-.93a2.4,2.4,0,0,1,0-.37c0-.19-.05-.38-.07-.57a7.44,7.44,0,0,1,.2-3.81,5.38,5.38,0,0,1,2.85-2.7,4.92,4.92,0,0,1,3.06-.9,43.58,43.58,0,0,1,4.7-.52c3.16-.21,7.15-.42,9,1.24a2.39,2.39,0,0,1,1.14,1.06,10.85,10.85,0,0,1,.94,2.74c0,.19.08.38.11.57.1.62.17,1.24.22,1.86.07.82.1,1.64.15,2.45,0,.28,0,.55,0,.82.1,2.36.09,4.72.18,7.08.22,5.13.42,10.25.82,15.38q.85,11.13,2.6,22.22l.09.58.3,1.88c.18,1.09.37,2.18.56,3.27s.37,2.07.56,3.1a1.24,1.24,0,0,1,0,.27A2.51,2.51,0,0,1,81.27,365Z"/><path class="cls-6" d="M75.49,305.09a130,130,0,0,0-22,2.89c0-.19-.05-.38-.07-.57a130.7,130.7,0,0,1,21.92-2.89C75.42,304.71,75.46,304.9,75.49,305.09Z"/><path class="cls-6" d="M75.9,310.22c-3.51.16-7,.35-10.53.54-3.85.22-7.74.35-11.57.87,0-.78-.11-1.57-.17-2.35A155.84,155.84,0,0,1,75.71,307c.07.82.1,1.64.15,2.45C75.88,309.68,75.89,310,75.9,310.22Z"/><path class="cls-6" d="M79.59,355.48a128.46,128.46,0,0,0-23.42,1.84c0-.19,0-.39-.05-.58A129.06,129.06,0,0,1,79.5,354.9Z"/><path class="cls-6" d="M80.45,360.63c-4-.05-7.93,0-11.89,0s-8-.07-12,.29c-.1-.77-.19-1.54-.26-2.31a154.14,154.14,0,0,1,23.61-1.22C80.07,358.45,80.26,359.54,80.45,360.63Z"/><path class="cls-13" d="M131.35,350.71c-.63-8.26-.77-16.44-.6-24.68.18-8,.58-16,1.31-24,.16-1.69.51-3.48-.09-5.18-1-2.81-4.6-4.56-8.71-5.14a173.38,173.38,0,0,0-18.52-1.34c-4.65-.16-7.93,1.72-8.51,4.66-.56,2.77.22,5.55.51,8.34a48.42,48.42,0,0,1,0,8.6c-.45,5.93-1.11,11.8-.94,17.77s.74,11.72,1,17.58c.13,2.91.16,5.82.07,8.72s-.08,5.72,1.35,8.48c1.61,3.08,6.14,4.93,10.45,4.07a9.88,9.88,0,0,0,2.74-.38l0,.06,2.19-.8c.39-.06.78-.14,1.18-.24a98.14,98.14,0,0,0,13.08-4.52,3.56,3.56,0,0,0,2.11-2.13C132.81,358,131.59,353.86,131.35,350.71Z"/><path class="cls-14" d="M112.74,363.56a1.67,1.67,0,0,0,0-.31q-2.88-17.38-4.09-34.92c-.39-5.77-.59-11.54-.8-17.31-.11-3-.09-5.92-.22-8.88s-.2-5.85-1.41-8.57a2.52,2.52,0,0,0-1.13-1.19c-1.87-1.88-5.84-1.64-9-1.39a36.62,36.62,0,0,0-4.66.58,4.49,4.49,0,0,0-3,1,5.66,5.66,0,0,0-2.83,3c-.64,1.68-.22,3.62-.1,5.33q.19,2.91.38,5.81.36,5.81.68,11.62.61,11.63,1,23.25c.22,6.26.17,12.54.93,18.77-.14.92-.29,1.83-.46,2.75a3.11,3.11,0,0,0,1.65,3.48,3.79,3.79,0,0,0,2.56,1.76c5,1.07,10.57.67,15.67.37,2.74-.16,5.09-1.75,5.09-4.06A3.11,3.11,0,0,0,112.74,363.56Z"/><path class="cls-4" d="M154.29,346.47c-.93-9-1.5-18-1.84-27-.33-8.78-.48-17.59-.4-26.38a19.68,19.68,0,0,0-.36-5.68c-.89-3-3.62-4.65-6.65-5a84.72,84.72,0,0,0-13.61-.05,6,6,0,0,0-6,5.77c-.25,3.08.48,6.07.85,9.11a80.42,80.42,0,0,1,.45,9.44c0,6.53-.14,13,.32,19.55s1.21,12.8,1.73,19.21c.26,3.18.45,6.37.55,9.56a25.85,25.85,0,0,0,1.47,9.19c1.35,3.26,4.76,4.95,7.86,3.67a5.4,5.4,0,0,0,2-.62l0,.05,1.56-1a6.06,6.06,0,0,0,.84-.36,60.24,60.24,0,0,0,9.3-6,3.82,3.82,0,0,0,1.42-2.5C155.77,354.31,154.64,349.9,154.29,346.47Z"/><path class="cls-5" d="M140.4,363.77a4.66,4.66,0,0,1-4.61,4.47c-4.62.33-9.67.77-14.2-.41a3.52,3.52,0,0,1-2.33-1.93,3.69,3.69,0,0,1-1.49-3.83c.12-.83.24-1.65.34-2.46,0-.19,0-.38.07-.56v0c-.06-.66-.12-1.32-.17-2,0-.19,0-.38-.05-.57-.46-6-.44-12.05-.62-18.08q-.34-12.79-.92-25.57-.27-6.39-.61-12.78c-.11-2.13-.22-4.25-.35-6.39,0-.53-.08-1.09-.12-1.65,0-.19,0-.39,0-.58a10.45,10.45,0,0,1,.21-3.45l.06-.19c0-.13.08-.26.13-.38a5.8,5.8,0,0,1,2.43-3,3.65,3.65,0,0,1,2.76-1.12,30.07,30.07,0,0,1,4.22-.64c2.84-.27,6.44-.53,8.13,1.53a2.6,2.6,0,0,1,1,1.31,14.92,14.92,0,0,1,.46,1.48l.14.56a24.14,24.14,0,0,1,.43,2.83l.06.57c.1,1.33.14,2.67.19,4,.13,3.25.1,6.52.2,9.77.2,6.34.38,12.69.73,19q.87,15.64,2.77,31.2c0,.2.05.39.08.58l.33,2.63c0,.19.05.37.07.56.14,1.15.3,2.29.46,3.44,0,.11,0,.23,0,.34A4,4,0,0,1,140.4,363.77Z"/><path class="cls-6" d="M139.71,358.74a149.87,149.87,0,0,1-21.6.87c0-.19,0-.38.07-.56v0a147.92,147.92,0,0,0,21.46-.85C139.66,358.37,139.69,358.55,139.71,358.74Z"/><path class="cls-6" d="M139.31,355.55a99.37,99.37,0,0,1-21.3,1.5c0-.19,0-.38-.05-.57A99.69,99.69,0,0,0,139.23,355C139.26,355.17,139.28,355.36,139.31,355.55Z"/><path class="cls-6" d="M135.34,291q-10,.25-20,1c0-.19,0-.39,0-.58q10-.76,20-1Z"/><path class="cls-6" d="M134.85,287.58a145.27,145.27,0,0,1-19.35.4l.06-.19c0-.13.08-.26.13-.38a145.5,145.5,0,0,0,19-.39Z"/><path class="cls-7" d="M174.11,358.85c.31-2.69-.19-5.73-.39-8.26-.7-9.1-1.13-18.16-1.39-27.3-.24-8.87-.36-17.77-.3-26.65a26.2,26.2,0,0,0-.28-5.74,6,6,0,0,0-5-5,48.49,48.49,0,0,0-10.29-.05c-2.58.2-4.31,2.53-4.5,5.83a60.2,60.2,0,0,0,.64,9.2c.28,3.16.33,6.36.34,9.54,0,6.6-.11,13.16.24,19.75s.91,12.93,1.31,19.4c.2,3.22.34,6.43.42,9.66a33.76,33.76,0,0,0,1.11,9.28c.83,2.68,2.69,4.31,4.62,4.12a4.71,4.71,0,0,0,.5.08,9.85,9.85,0,0,0,5.92-1.08c1.6-1,2.32-2.45,3.41-3.8s2.61-2.27,3.31-3.95A9.31,9.31,0,0,0,174.11,358.85Z"/><path class="cls-8" d="M168.53,368.06c0,2.57-2.36,4.34-5.12,4.52-5.14.33-10.75.77-15.78-.41a3.88,3.88,0,0,1-2.59-1.95,3.53,3.53,0,0,1-1.71-3.38c0-.16,0-.33,0-.5s0-.16,0-.24l.12-.72.24-1.62c0-.15.05-.31.07-.46s-.06-.51-.08-.77c-.12-1.19-.23-2.38-.31-3.58-.37-5.49-.38-11-.55-16.51q-.39-12.92-1-25.83-.31-6.45-.69-12.91c-.12-2.15-.24-4.3-.38-6.45-.11-1.9-.54-4.05.11-5.93a6,6,0,0,1,2.84-3.36,4.24,4.24,0,0,1,3.07-1.13,35.5,35.5,0,0,1,4.69-.65c3.16-.27,7.15-.54,9,1.54a2.76,2.76,0,0,1,1.14,1.32c1.22,3,1.28,6.34,1.42,9.53s.11,6.58.22,9.87c.22,6.41.41,12.82.81,19.22q.93,15,2.87,29.89c.16,1.21.32,2.42.49,3.64l.15,1.06c.07.55.16,1.1.24,1.65,0,.34.09.68.14,1l.12.76c0,.26.07.52.11.78a2.06,2.06,0,0,1,0,.35A3.72,3.72,0,0,1,168.53,368.06Z"/><path class="cls-6" d="M167.52,361.19c-4.16.56-8.34,1.05-12.53,1.27-2.52.13-5,.16-7.55.05-1.23.06-2.45.08-3.67,0-.12-1.19-.23-2.38-.31-3.58q6.1.06,12.21-.28l1.08-.1c2.11-.18,4.23-.36,6.35-.47l.64-.07c1.1-.18,2.19-.34,3.29-.48C167.19,358.76,167.35,360,167.52,361.19Z"/><path class="cls-6" d="M167.91,363.9c-4.28.42-8.56.8-12.88,1.06-2.51.14-5,.24-7.55.28-1.31.08-2.63.12-3.94.14l.24-1.62q6-.18,11.86-.55l1.08-.08c2.11-.15,4.23-.31,6.34-.43l.64-.06c1.32-.14,2.64-.28,4-.39C167.74,362.8,167.83,363.35,167.91,363.9Z"/><path class="cls-6" d="M168.17,365.68c-4.37.28-8.76.54-13.16.75q-3.76.17-7.55.27c-1.38.07-2.76.11-4.13.14,0-.16,0-.33,0-.5s0-.16,0-.24c4.08-.14,8.17-.3,12.24-.49l1.07-.05c2.12-.12,4.23-.23,6.35-.33l.64,0c1.44-.1,2.88-.2,4.33-.28Z"/><path class="cls-15" d="M344.36,40.63c-2.38-7.46-5.46-14.55-10.59-20.56C328.3,13.65,320.31,10,312.65,7c-4.18-1.68-8.48-3-12.77-4.31a34.53,34.53,0,0,0-6.79-1.59c-2.51-.25-4.95-.2-7.35-1a1.67,1.67,0,0,0-1.28,3l.23.13a1.58,1.58,0,0,0,.54.59A19.46,19.46,0,0,0,287.38,5l.08.08c-.95,1.89-.81,3.77-1.21,6-.45,2.46-2.25,4.55-2,7.1a.36.36,0,0,0,.44.34c2.16-.62,3.27-2.63,4.07-4.62a13.58,13.58,0,0,0,.9-3.6,12.37,12.37,0,0,1,.75-3.18A21.62,21.62,0,0,0,293.7,9c3.7,1.64,7.65,2.76,11.42,4.24a50,50,0,0,1,16.18,9.63,39.2,39.2,0,0,1,9.85,15.33c1.2,3.13,2.19,6.33,3.15,9.53A65.75,65.75,0,0,1,337,58.59c.85,7.1-.52,15.06-2.14,22-1.54,6.54-5.17,11.15-10,15.66a70.35,70.35,0,0,1-32.79,17,180.13,180.13,0,0,1-23.71,3.22,92.69,92.69,0,0,1-16,.39c1.36-3,1.19-6.84.79-9.86a.21.21,0,0,0-.41-.06c-.59,1.88-1.48,3.71-2.23,5.54-.53,1.28-1.32,2.56-1.81,3.89-.88-.15-1.75-.34-2.63-.56a2.33,2.33,0,0,0-2.25,3.87,26,26,0,0,0,9.11,5.67c3.43,1.31,7.6,1.62,11.26,2,.87.08,1.74.12,2.62.12a35.1,35.1,0,0,1-1.77,7.93l-.22.26a11.67,11.67,0,0,1-1,1.13c-1.05,0-2.1.1-3.15.2a51.84,51.84,0,0,0-7.53,1.23A31.84,31.84,0,0,0,240,145c-4.2,3.64.37,9.69,5.06,8.7a71.84,71.84,0,0,1,13.36-1.92,102,102,0,0,1,13.64.75c9.06,1,18.12,2.64,27.28,1.95a4.74,4.74,0,0,0,3.3-8c-5-5.91-12.5-5.95-19.53-6.93-1.91-.27-5.12-.63-6.34-2.41-.69-1-.68-2.69-.81-3.88-.22-2.11-.41-4.25-.47-6.38v0c4.23-.32,8.47-.5,12.68-1.09a83.49,83.49,0,0,0,41.28-18.11C335.34,102.94,341,97.23,344,90.2a48.29,48.29,0,0,0,3.13-11.7c.7-4.41,1.41-8.86,1.67-13.32C349.33,56.7,346.91,48.62,344.36,40.63Z"/><path class="cls-16" d="M327,57.08l0,1.09a94,94,0,0,1-.5,10.56,43.71,43.71,0,0,1-2.09,10,29.17,29.17,0,0,1-2.66,5.63,36.91,36.91,0,0,1-2.15,3.13,63.67,63.67,0,0,1-7.75,8.25c-3.94,3.6-8.06,7.33-12.91,9.67-5,2.43-10.64,3.83-16,5.19-10.91,2.76-22.29,3.19-33.09-.32-9.92-3.22-18.56-9.47-23.22-19-4.92-10-7.09-21.54-7-32.67,0-10.3,2.35-21,8.25-29.61s14.3-14,24.49-16.57c11.12-2.74,22.78-4.76,34.16-2.62a58.1,58.1,0,0,1,12.24,3.8,67.51,67.51,0,0,1,16.33,10c7.85,6.54,11.33,16.27,11.91,26.24A63.84,63.84,0,0,1,327,57.08Z"/><path class="cls-17" d="M327,49.88c-.58-10-4.06-19.7-11.91-26.24a67.51,67.51,0,0,0-16.33-10,12.21,12.21,0,0,0-6.36,1.68l-.09,0a35.8,35.8,0,0,0-6.1-4.29,6.89,6.89,0,0,0-2.74-1.17c-3.11-.58-7,.34-8.66,3.22a2.24,2.24,0,0,0-.15,1.79c-2.65.41-5.32.77-8,1a30.07,30.07,0,0,1-5.45,0,2.78,2.78,0,0,0-.87-.41,2.52,2.52,0,0,0-1.6.09,2.71,2.71,0,0,0-2.31.6c-1.57,1.49-.23,3.89,1.57,4.34a4,4,0,0,0,.92.11,9.22,9.22,0,0,0,3.19.42,35.15,35.15,0,0,1,7.61,1.31,1.56,1.56,0,0,0,.71,0h0a3,3,0,0,0,.73.92,16.11,16.11,0,0,1,.66,2.36,4,4,0,0,0,2.73,2.88,1.78,1.78,0,0,0,1.8-.48c2.16-2.54,5-2.69,7.91-1.25a8.57,8.57,0,0,1,1.72,1c.16,1.11-1.73.57-2.11.45-1.45-.47-2.89-1-4.34-1.5a1.89,1.89,0,0,0-2.36,1.81c-.19,1.84,1.27,3.23,1.78,4.94a25.45,25.45,0,0,1,.57,2.78,3.33,3.33,0,0,0-.24-.64,3.38,3.38,0,0,0-3.39-2h-.16a6.61,6.61,0,0,0-2.28-1.91,44,44,0,0,0-11.51-4.66c-1.4-.35-.94,0-1.17-1.21a5.54,5.54,0,0,0-.73-2.16,4.74,4.74,0,0,0-3.71-2c-3.67-.29-8.14,1-11.48,2.41a18.62,18.62,0,0,0-8.8,7.93c-1.7,2.94-3.32,7.45-1.89,10.77.75,1.74,2.33,2.78,3.82,3.84a14.54,14.54,0,0,0,5.62,2.85,11.92,11.92,0,0,1,2.77.54c1.2,3.08,2.23,6.84.62,9.44a10.79,10.79,0,0,0-2,4.62c-.27,2.3.62,4.48.59,6.77-.05,4.31-2.52,8.25-2.63,12.6a10,10,0,0,0,4.86,9.22,7.47,7.47,0,0,0,8.89-1.46c2.1-2,3-4.55,5.89-5.59,4-1.46,4.28-5.61,7.07-8.37a15.44,15.44,0,0,0,3.16-4.24,9.84,9.84,0,0,1,3.75-4.39c3-1.84,7.28-.48,9.72-3.4s.35-6-2.38-7.54c-1.64-.93-3.5-1.66-4.34-3.48s-.61-4.05-.51-6c.14-2.41.32-4.81.48-7.22,0-.47.08-1,.13-1.45a1.28,1.28,0,0,0,.25-.67,3.61,3.61,0,0,1,.59,2c.12,1.91-.37,3.9-.38,5.83,0,2.67.14,5.68,1.95,7.82a8.41,8.41,0,0,0,6.13,2.61A8.55,8.55,0,0,0,294,55.81c2-.85,3.47-3,1.8-5.08-1-1.27-2.48-1.28-3.79-1.77,0-2.16-1.5-4-2.71-5.81,0-.1,0-.2,0-.3,2.35.82,4.61,3,6.48,4.2,1.57,1,3.33,1.5,4.86,2.65a16.29,16.29,0,0,1,3.28,3.47,18.84,18.84,0,0,1,1.79,4.42,4.61,4.61,0,0,0,.65,2.81c.22,1.24.38,2.47.47,3.6.18,2.23-.74,5.87,1.9,7,1.06.45,2.66.21,2.92-1.19.2-1.18.32-2.39.56-3.57a14.6,14.6,0,0,1,.67-3,1.61,1.61,0,0,0,.51-.63c.91-.71,2.32-.53,3.35-.74s1.52-.79,2.29-.46c1,.47.63,3.48,1,4.64a6.5,6.5,0,0,0,2.88,3.8,1.59,1.59,0,0,0,2.31-1.77c-.72-2.26-2.48-9.75,1-9.94.28,0,.54,0,.79,0l0-1.09A63.84,63.84,0,0,0,327,49.88Zm-.38,3.42-.34.1h0a4.91,4.91,0,0,0,.38-.55v0C326.62,53,326.61,53.16,326.61,53.3Z"/><path class="cls-17" d="M276,85.24a2.54,2.54,0,0,1,.33-.5,0,0,0,0,0-.06-.07,2,2,0,0,1-.76.23,2.89,2.89,0,0,0-2.52,0,4.59,4.59,0,0,0-2.87.58,5.27,5.27,0,0,0-1.76,2.17,3.92,3.92,0,0,1-.74,1.19c-.32.29-.81.41-1.16.71a1.47,1.47,0,0,0-.23,1.74l.12.29a1.73,1.73,0,0,0,1.56.89,4.1,4.1,0,0,0,2.73-1.24c.76-.78.8-2.06,1.5-2.77a3.23,3.23,0,0,1,1.32-.67,1.62,1.62,0,0,0,1.31.26,2.15,2.15,0,0,0,1.18-.66A1.6,1.6,0,0,0,276,85.24Z"/><path class="cls-17" d="M324.47,78.73a29.17,29.17,0,0,1-2.66,5.63,36.91,36.91,0,0,1-2.15,3.13,3,3,0,0,1-1.85-1.33c-.59-1-.49-2.66-.49-3.8,0-2,.32-4.77,2.62-5.51a3.6,3.6,0,0,1,3.3.84A8.79,8.79,0,0,0,324.47,78.73Z"/><path class="cls-18" d="M170.19,31.06l-.46.16a.14.14,0,0,0-.09-.08c-2.23-.63-4.71.93-6.59,2a31.54,31.54,0,0,0-6.51,5,53.43,53.43,0,0,0-10,14.09A71.49,71.49,0,0,0,140.67,69c-1.37,6.23-1.06,12.58-1.54,18.9-.44,5.8-1.7,12-6,16.22a3.19,3.19,0,0,0-.56,4.33,3.12,3.12,0,0,0,4.33.56c.51-.48,1-1,1.44-1.48,3.86-2.51,6.63-6.64,8.82-10.6a38,38,0,0,0,5-16.61c.3-6.21.08-12.32,1-18.49A61.38,61.38,0,0,1,158,44.88a22.73,22.73,0,0,1,5.57-7.23,52,52,0,0,1,7.29-5.53C171.44,31.74,170.82,30.83,170.19,31.06Z"/><path class="cls-18" d="M144.08,97.73A41.12,41.12,0,0,0,138,81.38c-3.33-5.15-8.32-9-13.09-12.74A82.07,82.07,0,0,1,111.3,56a54.19,54.19,0,0,1-6.65-10.4c-.91-2.51-1.81-5-2.83-7.53a.36.36,0,0,0-.68.08c-.42,5.2,1,10.37,2.59,15.28a89.52,89.52,0,0,0,6.68,14.81,127.9,127.9,0,0,0,8.92,13.88c3.41,4.66,7.39,8.74,11.17,13.08a24.13,24.13,0,0,1,4.87,8.66c.33,2.58.61,5.17.93,7.74a3.61,3.61,0,0,0,4,3.07c2.11-.27,3.06-2,3.07-4,0-.42,0-.83,0-1.24a22.43,22.43,0,0,0,.8-3.55A28,28,0,0,0,144.08,97.73Z"/><path class="cls-19" d="M170.46,50.22c-.36.71-.74,1.43-1.1,2.15a19.34,19.34,0,0,0-3.78,4.41c-1.59,2.3-3,4.7-4.47,7.1a135.51,135.51,0,0,0-7.7,14.54c-2,4.56-3.63,9.23-5.31,13.92a33,33,0,0,1-2.57,5.8c-1.11,1.86-3.07,3.36-3.57,5.5a2.31,2.31,0,0,0,2,2.61,5.58,5.58,0,0,0,3.77-1.45,3.21,3.21,0,0,0,.78-.14A31.63,31.63,0,0,0,162.12,97c3.83-3.89,5.87-9.18,7.61-14.26a43.55,43.55,0,0,0,2.48-16.43q-.19-3.93-.44-7.86c-.15-2.6-.49-5.25.08-7.8C172,49.76,170.82,49.53,170.46,50.22Z"/><path class="cls-19" d="M129,81.64a30.29,30.29,0,0,0-11.53-9.13,19.65,19.65,0,0,0-2-.74,49.16,49.16,0,0,0-8.22-2.54c-4.71-1.07-9.77-1.3-13.89-4.11A10.39,10.39,0,0,1,88.93,60,48.27,48.27,0,0,1,87,53.76c0-.35,0-.71,0-1.06a.17.17,0,0,0-.22-.16,1.84,1.84,0,0,1,0-.25.14.14,0,0,0-.28,0c-.07.71-.18,1.42-.3,2.13a20.78,20.78,0,0,0-.74,8.21q.09.65.24,1.29a18.73,18.73,0,0,0,.5,2.67,7.4,7.4,0,0,0,.29,1,25.92,25.92,0,0,0,1.53,3.75A31.32,31.32,0,0,0,98.13,82.48a54.52,54.52,0,0,0,13.2,6.37c4.33,1.54,8.86,3,12.43,6a21.46,21.46,0,0,1,5.23,6.77,22.4,22.4,0,0,1,1.52,4.37c.39,1.56.17,3.14.5,4.69s2.69,2.21,3.26.45a17.73,17.73,0,0,0,.6-4,18.15,18.15,0,0,0,.16-3.68C135.65,95.77,133.64,87.67,129,81.64Z"/><path class="cls-19" d="M143.4,102.91a73.36,73.36,0,0,0-3.67-35.17C135.43,56.1,127.38,46.22,124.44,34A90.6,90.6,0,0,1,122,12.49a.28.28,0,0,0,0-.09,6.33,6.33,0,0,0-.24-1.82c-.11-.36-.59-.34-.8-.1-1.93,2.15-2.2,6-2.72,8.74a76.71,76.71,0,0,0-1.12,9.68,60.89,60.89,0,0,0,1.57,19.17c3.24,12.34,9.59,23.58,14.54,35.26,1.44,3.4,2.87,6.8,4,10.33a88.37,88.37,0,0,1,2.58,11.24c.45,2.57,4.56,2,4-.51Z"/><path class="cls-20" d="M163.57,105.59c-2-2.15-5.68-2.22-8.4-2.42A127.08,127.08,0,0,0,137.5,103a94.28,94.28,0,0,0-10.17,1.19c-1.4.24-2.79.58-4.17.94q-2.32.18-4.65.27a3.54,3.54,0,0,0-1.77,0,3.19,3.19,0,0,0-2.21,2,4,4,0,0,0,0,3.46q1.43,9.95,3,19.86c.57,3.45,1.18,6.89,1.8,10.33s1,7.5,2.81,10.4a2.81,2.81,0,0,0,3.24,1.05,5.36,5.36,0,0,0,.8.26,43.62,43.62,0,0,0,9.76.58,71.42,71.42,0,0,0,18.92-2.41,3.51,3.51,0,0,0,1.24-.65,1.31,1.31,0,0,0,1.26-.57c1.77-2.41,2.18-5.65,2.74-8.53s1-5.93,1.41-8.9c.85-6,1.62-12,2.54-18C164.48,111.4,165.76,108,163.57,105.59Z"/><path class="cls-21" d="M165.58,101.1a48.07,48.07,0,0,0-16.06-2.84c-2.63,0-5.26.26-7.89.08a55.27,55.27,0,0,0-7.82-.46,80.37,80.37,0,0,0-16.12,3c-2.49.71-5.58,1.3-7,3.77a4.94,4.94,0,0,0,.71,5.67,3.89,3.89,0,0,0,4.54,2.24c7.63-1.83,15.29-1.12,23-1.59,7.34-.45,15.73-2.49,22.76.64,2.18,1,5.19.36,5.79-2.36l.74-3.3A4.06,4.06,0,0,0,165.58,101.1Z"/><path class="cls-22" d="M397.13,369.67c-.21-1.75-.38-3.42-.7-5.06,0-2.7,0-5.4-.05-8.1-.12-7.23-.49-14.46-.86-21.68q-1.12-21.68-3-43.31c-2.45-28.18-6-56.31-9.17-84.43-.46-4.19-.88-8.39-1.4-12.58a79.93,79.93,0,0,0-1.66-8c-.19-4.81-.37-9.63-.66-14.43q0-.68-.09-1.35c-.27-4.22-.64-8.44-1.19-12.64a4,4,0,0,0-1.82-3,5.5,5.5,0,0,0-3.21-1.36c-11.26-1.13-22.63-1.21-33.94-1.62-11.12-.41-22.24-.83-33.36-1.2l-67.3-2.29c-22.15-.75-44.33-1.85-66.49-1.61s-44,2.2-66,3.83c-12.39.93-24.79,1.75-37.2,2.1-6,.16-12,.23-18,.13-5.12-.07-10.16.16-15.24.33-1.49-.38-3-.79-4.45-1.13a5.36,5.36,0,0,0-6.68,5.09c-.44,14.46-1,28.89-2.39,43.29-1.38,14.22-3.36,28.36-5.35,42.51-4,28-7.79,56.08-8.6,84.39-.21,7.8-.23,15.6-.24,23.41,0,4.16,0,8.32,0,12.48s-.26,8.39.89,12.44a3.89,3.89,0,0,0,2.21,2.57,6.19,6.19,0,0,0,5.15,3.36q6.95.76,13.9,1.45,65.83,6.57,132,7.25c48.91.48,97.8-.7,146.69-1.87q18.75-.45,37.49-1.05l3.56-.12q10-.36,19.95-.81c7.21-.34,14.52-.33,21.6-1.85a5.51,5.51,0,0,0,3.24-2.16,7.85,7.85,0,0,0,2.66-4C398.21,375.76,397.48,372.52,397.13,369.67ZM32.53,206.29a427,427,0,0,0,2.68-43.2,61.77,61.77,0,0,0,8.26-.42c1.37.14,2.75.24,4.14.28,5.44.17,10.89.2,16.33.13,11.1-.13,22.19-.71,33.26-1.43,22-1.44,44-3.48,66-4.06s44.23.51,66.32,1.37l67.88,2.65q18.7.73,37.39,1.4c12,.44,24,1.24,35.95,1.07.12,9.2,1.08,18.34,2,27.49a108.76,108.76,0,0,0,.93,11c.29,2.87.59,5.73.88,8.6.86,10.12,1.77,20.26,3.15,30.31.08.81.16,1.62.25,2.42,1,9.52,2,19,3,28.56-25.59,3.11-51.29-.05-76.85-2.11a697.59,697.59,0,0,0-78.67-1.4c-52.14,1.69-104.17,7-156.37,6.22-14.81-.23-29.53-1.17-44.29-2.33l-1.06-.07C26.64,250.57,30.16,228.5,32.53,206.29Zm-10.42,79.9a2.56,2.56,0,0,0,.51.12,3,3,0,0,1-.57.38Zm349.55,86.69q-9.12.42-18.24.75c-12.16.44-24.32.77-36.49,1.07q-36.35.89-72.69,1.58c-48.68.94-97.39,1.08-146-.73q-39.51-1.47-78.91-4.75l-1.55-.13c.11-1.63.11-3.28.16-5q.15-5.67.22-11.35c.11-7.08.19-14.16.41-21.24.43-14.24,1.57-28.45,3.1-42.61.11-1,.23-2,.35-3.05a7.2,7.2,0,0,0,2.21-1h.08c1.49.17,3,.33,4.48.47,3,.27,6,.5,9,.71q8.69.6,17.38.92c11.78.44,23.58.53,35.37.37,23.64-.32,47.26-1.61,70.86-3,47.19-2.74,94.5-5.66,141.72-1.92,26.4,2.09,52.94,5.47,79.38,2,1.47,14.55,2.85,29.11,4,43.68.61,8,1.14,16,1.54,24,.29,5.72.39,11.43,1.18,17,.08.59.17,1.16.27,1.75C383.48,372,377.55,372.61,371.66,372.88Z"/></g></g></svg>