<svg xmlns="http://www.w3.org/2000/svg" viewBox="0 0 448.06 512"><g id="Layer_2" data-name="Layer 2"><g id="Layer_1-2" data-name="Layer 1"><g id="Layer_2-2" data-name="Layer 2"><g id="Layer_1-2-2" data-name="Layer 1-2"><path d="M256,32V51.2A160.1,160.1,0,0,1,384,208v18.8a192.25,192.25,0,0,0,48.5,127.6l7.4,8.3A32,32,0,0,1,416,416H32A32,32,0,0,1,8.12,362.7l7.42-8.3A192.11,192.11,0,0,0,64,226.8V208A159.2,159.2,0,0,1,192,51.2V32a32,32,0,0,1,64,0ZM224,512a64,64,0,0,1-45.3-18.7A65.62,65.62,0,0,1,160,448H288a63.85,63.85,0,0,1-63.7,64Z"/></g></g></g></g></svg>