<svg xmlns="http://www.w3.org/2000/svg" viewBox="0 0 512 512"><g id="Layer_2" data-name="Layer 2"><g id="Layer_1-2" data-name="Layer 1"><g id="Layer_2-2" data-name="Layer 2"><g id="Layer_1-2-2" data-name="Layer 1-2"><path d="M256,512C114.6,512,0,397.4,0,256S114.6,0,256,0,512,114.6,512,256,397.4,512,256,512ZM232,256c0,8,4,15.5,10.7,19.1l96,64c11,8.2,25.9,5.2,32.4-5.8a23.16,23.16,0,0,0-4.57-32.43c-.4-.31-.81-.59-1.23-.87L280,243.2V120c0-13.3-10.7-24-24.9-24-12.4,0-24,10.7-24,24Z"/></g></g></g></g></svg>