<svg xmlns="http://www.w3.org/2000/svg" viewBox="0 0 448 512"><g id="Layer_2" data-name="Layer 2"><g id="Layer_1-2" data-name="Layer 1"><g id="Layer_2-2" data-name="Layer 2"><g id="Layer_1-2-2" data-name="Layer 1-2"><path d="M448,80v48c0,44.2-100.3,80-224,80S0,172.2,0,128V80C0,35.82,100.3,0,224,0S448,35.82,448,80ZM393.2,214.7c19.9-7.4,39.9-16.9,54.8-28.6V288c0,44.2-100.3,80-224,80S0,332.2,0,288V186.1c14.93,11.7,34,21.2,54.85,28.6C99.66,230.7,159.5,240,224,240S348.3,230.7,393.2,214.7ZM54.85,374.7C99.66,390.7,159.5,400,224,400s124.3-9.3,169.2-25.3c19.9-7.4,39.9-16.9,54.8-28.6V432c0,44.2-100.3,80-224,80S0,476.2,0,432V346.1C14.93,357.8,34,367.3,54.85,374.7Z"/></g></g></g></g></svg>