<svg xmlns="http://www.w3.org/2000/svg" viewBox="0 0 320.51 512"><g id="Layer_2" data-name="Layer 2"><g id="Layer_1-2" data-name="Layer 1"><g id="Layer_2-2" data-name="Layer 2"><g id="Layer_1-2-2" data-name="Layer 1-2"><path d="M315.62,271,245.06,158.9A62.65,62.65,0,0,0,190.82,128h-60.6a63.61,63.61,0,0,0-54.28,30.09L5.39,271a32,32,0,0,0,53.23,35.54c.35-.54.7-1.08,1-1.64l28.88-46.18L87.62,480a32,32,0,0,0,32,32c17.67,0,31.1-14.33,31.1-32V336h16V480a32,32,0,0,0,64,0V258.8L259.6,305c7.82,9.7,18.32,15,28.92,15a32,32,0,0,0,27.1-49ZM160.52,96a48,48,0,1,0-48-48A48,48,0,0,0,160.52,96Z"/></g></g></g></g></svg>