<svg xmlns="http://www.w3.org/2000/svg" viewBox="0 0 572.42 564.37"><g id="Layer_2" data-name="Layer 2"><g id="Layer_1-2" data-name="Layer 1"><g id="Layer_2-2" data-name="Layer 2"><g id="Layer_1-2-2" data-name="Layer 1-2"><path d="M8.42,273.06c11.22,12.49,29.4,12.5,40.6,0l65.81-73.3v242.7c0,17.67,12.86,32,28.71,32s28.71-14.33,28.71-32V199.76l65.84,73.38c11.21,12.49,29.38,12.49,40.6,0s11.21-32.75,0-45.25l-114.84-128a26.57,26.57,0,0,0-37.47-3.1,26,26,0,0,0-3.11,3.1L8.42,227.86C-2.81,240.36-2.81,260.56,8.42,273.06Z"/><path d="M572.42,514.85V552a4.06,4.06,0,0,1-.29,1.58,4.77,4.77,0,0,1-.63,1.23,5.79,5.79,0,0,1-.43.58h0c-.17.2-.34.39-.53.58l-.29.29c-.1.1-.41.37-.63.56h0l-.72.55h0l-.46.32c-.31.21-.65.42-1,.62h0l-.54.3h0l-.56.3h0l-.58.29h0l-.62.28h0l-.62.28h0c-.44.18-.87.36-1.32.53h0c-.46.17-.93.34-1.41.5l-1.49.49-1.56.45h0l-2.08.53h0c-.81.18-1.62.36-2.47.53l-1.73.31-1.77.28-.91.13a97.56,97.56,0,0,1-13.12.86H35.78C16,564.4,0,558.85,0,552V514.85c0-6.84,16-12.39,35.78-12.39H536.65a97.56,97.56,0,0,1,13.12.86l.91.13,1.77.28,1.73.32c.85.16,1.66.34,2.47.53h0l2.08.52h0l1.56.46c.51.15,1,.31,1.49.48s1,.33,1.41.51h0c.45.17.88.35,1.32.53a28.39,28.39,0,0,1,2.92,1.46c.34.2.68.41,1,.62l.46.31h0l.72.54h0c.22.18.43.37.63.56l.29.28.53.58h0a4.94,4.94,0,0,1,.43.59,5.23,5.23,0,0,1,.63,1.22,4.44,4.44,0,0,1,.19.62A4.12,4.12,0,0,1,572.42,514.85Z"/><path d="M293.75,336.54l114.84,128a26.6,26.6,0,0,0,37.5,3,25.85,25.85,0,0,0,3.09-3.1L564,336.51c11.2-12.5,11.2-32.76,0-45.25s-29.4-12.49-40.6,0l-65.84,73.38V121.94c0-17.67-12.85-32-28.71-32s-28.71,14.33-28.71,32v242.7l-65.81-73.3c-11.2-12.5-29.38-12.49-40.6,0S282.52,324,293.75,336.54Z"/><path d="M572.42,49.55V12.39a4.06,4.06,0,0,0-.29-1.58,4.87,4.87,0,0,0-.63-1.22,4.94,4.94,0,0,0-.43-.59h0l-.53-.58-.29-.28-.63-.57h0L568.9,7h0l-.46-.32c-.31-.21-.65-.41-1-.62h0l-.54-.3h0l-.56-.3h0l-.58-.29h0l-.62-.28h0l-.62-.28h0c-.44-.18-.87-.36-1.32-.53h0c-.46-.17-.93-.34-1.41-.5l-1.49-.49-1.56-.45h0l-2.08-.53h0c-.81-.18-1.62-.36-2.47-.53l-1.73-.31L550.68,1l-.91-.13A99.24,99.24,0,0,0,536.65,0H35.78C16,0,0,5.55,0,12.39V49.55c0,6.84,16,12.39,35.78,12.39H536.65a97.56,97.56,0,0,0,13.12-.86l.91-.13,1.77-.28,1.73-.31c.85-.17,1.66-.35,2.47-.53h0l2.08-.53h0l1.56-.45,1.49-.49c.49-.17,1-.33,1.41-.5h0c.45-.17.88-.35,1.32-.53a31.71,31.71,0,0,0,2.92-1.45l1-.62.46-.32h0l.72-.54h0c.22-.18.43-.37.63-.56l.29-.28.53-.58h0a4.94,4.94,0,0,0,.43-.59,5.23,5.23,0,0,0,.63-1.22,4.06,4.06,0,0,0,.29-1.58Z"/></g></g></g></g></svg>