<svg xmlns="http://www.w3.org/2000/svg" viewBox="0 0 60.19 60.12"><g id="Layer_2" data-name="Layer 2"><g id="Layer_1-2" data-name="Layer 1"><g id="Layer_2-2" data-name="Layer 2"><g id="Layer_1-2-2" data-name="Layer 1-2"><path d="M30.09,13.69h-23A6.83,6.83,0,0,1,5.69.14,8.78,8.78,0,0,1,7.22,0H53a6.84,6.84,0,0,1,.53,13.67H30.09Z"/><path d="M30.09,46.47H53.14A6.83,6.83,0,0,1,54.45,60a16.55,16.55,0,0,1-1.72.11H7.22a6.85,6.85,0,0,1-1.93-13.5,6.28,6.28,0,0,1,1.43-.17Z"/><path d="M30.1,36.92H7.32a6.87,6.87,0,0,1-6.19-3.18,6.46,6.46,0,0,1-.27-6.87A6.63,6.63,0,0,1,7,23.24H52.85a6.9,6.9,0,0,1,5.5,2.25,6.45,6.45,0,0,1,1.29,7.13,6.49,6.49,0,0,1-5.86,4.26c-.78.07-1.58,0-2.36,0Z"/></g></g></g></g></svg>