<svg xmlns="http://www.w3.org/2000/svg" viewBox="0 0 350.29 354.55"><g id="Layer_2" data-name="Layer 2"><g id="Layer_1-2" data-name="Layer 1"><g id="Layer_2-2" data-name="Layer 2"><g id="Layer_1-2-2" data-name="Layer 1-2"><path d="M209.81,354.55H1.08c-.29-.37-.67-.63-.66-.88C.89,332-1.74,310.09,2.25,288.48c8-43.41,44.8-78,88.58-83.53a8.9,8.9,0,0,0,3.31-1.19c-21-4-38-14.15-50.34-31.6s-16.39-37-12.22-57.8c7.49-37.42,41-62.38,79.75-60,35,2.18,65.6,32.57,68.42,68,3.06,38.6-22.56,74-64,81.79l8.93,1.72a104.55,104.55,0,0,1,85.09,103C209.83,324,209.81,339.05,209.81,354.55Z"/><path d="M350,18.24l-89.82,144.3-4.76,1.16a15.11,15.11,0,0,1-18.34-11c-.05-.16-.08-.32-.12-.49L217.9,66.55a15.85,15.85,0,0,1,11.7-18.79,15.14,15.14,0,0,1,18.31,11.12l.09.37,11,49.08L321.75,7.45a15.52,15.52,0,0,1,21.32-5.19A15.38,15.38,0,0,1,350,18.24Z"/></g></g></g></g></svg>