<svg xmlns="http://www.w3.org/2000/svg" viewBox="0 0 631.87 633.1"><g id="Layer_2" data-name="Layer 2"><g id="Layer_1-2" data-name="Layer 1"><g id="Layer_2-2" data-name="Layer 2"><g id="Layer_1-2-2" data-name="Layer 1-2"><path d="M0,196.31c3.2-9.58,7-18.74,15-25.56,8.43-7.21,18-11.41,29.16-11.41H384.62c25.37,0,44.13,20.34,44.31,47.72.17,25.28,0,50.56,0,75.85V426.58c0,23-11.63,40.16-31.55,46.29a54.83,54.83,0,0,1-15.7,2.14q-120.58.19-241.16,0a24.66,24.66,0,0,0-15.84,5.36c-21.24,16.18-42.67,32.12-64,48.14-1,.71-2,1.36-4.28,3v-9.2c0-11.3.13-22.61,0-33.91-.13-8.57-4.11-12.72-12.12-13.25C22,473.68,7,461.55,1.13,440.26A11.27,11.27,0,0,0,0,438.15ZM214.1,306.06H95.69c-16.45,0-32.89-.06-49.34,0-8.21.05-13,5.27-12,12.81.78,6.36,5.42,9.49,14.18,9.49h331.8c1.44,0,3.19.48,4.26-.15,3.19-1.9,7.25-3.61,8.91-6.55C398,313.77,391.67,306,381.28,306Q297.67,306,214.1,306.06ZM151.88,260.6H258c8.42,0,13.19-4.92,12.41-12.45-.68-6.49-5.64-9.88-14.61-9.88H49.11a30.05,30.05,0,0,0-5.53.24c-6.69,1.24-10.5,7-9.14,13.68,1.12,5.47,5.39,8.41,12.55,8.42Q99.45,260.64,151.88,260.6ZM118.75,373.86H47.86c-9.13,0-13.75,3.85-13.65,11.22.09,6.95,4.95,11.1,13.39,11.11q70.89.06,141.79,0c8.41,0,13.28-4.2,13.34-11.16.07-7.18-4.51-11.15-13.09-11.17Q154.2,373.81,118.75,373.86ZM344,260.6h37.56c8.15,0,13.43-4.5,13.34-11.17-.09-6.49-5.23-11.11-12.94-11.14q-37.87-.14-75.75,0c-7.74,0-12.6,4.65-12.55,11.35s4.82,10.91,12.78,10.95C318.91,260.64,331.43,260.6,344,260.6Z"/><path d="M154.26,633.1c-5.77-3.29-7.85-8.17-7.66-14.83.37-13.36,0-26.73.14-40.09.07-8.68,4.24-12.84,12.91-12.85q43.5-.11,87,0c8.38,0,12.72,4.06,12.84,12.35.21,14.39,0,28.78.1,43.17.06,5.94-3.17,9.48-7.83,12.25Z"/><path d="M586,249.22h-22c-1.63-11.41-2.86-22.6-4.85-33.65-16.34-90.74-90-167.28-181-185.6-58.71-11.83-116.93-9.58-172.47,16-41.34,19-74.45,47.84-99.31,86-2.44,3.74-4.81,5.43-9.27,5.17-6.34-.36-12.72-.09-19.7-.09A29.79,29.79,0,0,1,79,132.86C119,65,177.26,21.77,254.48,6.69,308.59-3.87,363.19-3,415.4,17,505.74,51.57,561,117.12,582,211.48c2,9.19,2.78,18.67,3.91,28C586.29,242.52,586,245.61,586,249.22Z"/><path d="M564.24,475.14V273c.41-.38.7-.9,1-.9,12.92.16,26-.66,38.71.82,16.36,1.91,27.83,16.13,27.86,32.52q.12,68.1,0,136.18a33.38,33.38,0,0,1-33.13,33.49C587.4,475.23,576.13,475.14,564.24,475.14Z"/><path d="M541.47,271.81V475c-12.06,0-23.92.37-35.74-.16-5.53-.25-8.46-4.63-9.34-10a34.29,34.29,0,0,1-.14-5.55V287.8c0-12.09,3.82-16,15.74-16C521.62,271.79,531.24,271.81,541.47,271.81Z"/><path d="M282.28,610.39V587.68H290c64.17,0,128.36-.75,192.51.25,44.23.69,83-35.07,81.58-81.81-.08-2.62,0-5.25,0-8.24h22.53A110.65,110.65,0,0,1,581.26,542C567.65,581.83,530,610.2,488,610.56c-67.25.56-134.51.18-201.77.18C285,610.74,283.81,610.53,282.28,610.39Z"/></g></g></g></g></svg>