<svg xmlns="http://www.w3.org/2000/svg" viewBox="0 0 448 512"><defs><style>.cls-1{fill:#fff;}</style></defs><g id="Layer_2" data-name="Layer 2"><g id="Layer_1-2" data-name="Layer 1"><path class="cls-1" d="M160,32V64H288V32a32,32,0,0,1,64,0V64h48a48,48,0,0,1,48,48v48H0V112A48,48,0,0,1,48,64H96V32a32,32,0,0,1,64,0ZM0,192H448V464a48,48,0,0,1-48,48H48A48,48,0,0,1,0,464ZM328.1,304.1c10.2-8.5,10.2-23.7,0-33.1-8.5-9.3-23.7-9.3-33.1,0l-95,95.1L152.1,319c-8.5-9.3-23.7-9.3-33.1,0s-9.3,24.6,0,33.1l64,64c9.4,10.2,24.6,10.2,33.1,0Z"/></g></g></svg>