<svg xmlns="http://www.w3.org/2000/svg" viewBox="0 0 473.94 513.65"><defs><style>.cls-1{fill:#fff;}</style></defs><g id="Layer_2" data-name="Layer 2"><g id="Layer_1-2" data-name="Layer 1"><path class="cls-1" d="M336.54,408.25l128-128a31.89,31.89,0,0,0-.05-45.23l-128-128a32,32,0,0,0-45.25,45.25l73.38,73.38H121.94a32,32,0,0,0,0,64h242.7L291.34,363a32,32,0,0,0,45.2,45.25Z"/><path class="cls-1" d="M15.48,15.76c.48.72.94,1.45,1.37,2.21C16.43,17.21,16,16.48,15.48,15.76Z"/><path class="cls-1" d="M49.55,1.65H12.39a5.2,5.2,0,0,0-1,.09,6.29,6.29,0,0,0-.62.17,5.56,5.56,0,0,0-1.22.56c-.2.12-.4.25-.59.39H9l-.58.47-.28.26q-.29.27-.57.57h0L7,4.8H7c-.11.13-.21.27-.32.41s-.41.58-.62.89h0q-.15.23-.3.48h0c-.1.16-.2.32-.3.5h0l-.29.52h0c-.09.18-.19.36-.28.55h0c-.1.18-.19.36-.28.56h0c-.18.39-.36.78-.53,1.18h0c-.17.41-.34.83-.5,1.26s-.33.88-.49,1.33-.3.92-.45,1.4h0c-.18.61-.36,1.23-.53,1.86h0c-.18.72-.36,1.45-.53,2.21-.11.51-.21,1-.31,1.54s-.19,1-.28,1.59l-.13.81A78.79,78.79,0,0,0,0,33.65v448c0,17.67,5.55,32,12.39,32H49.55c6.84,0,12.39-14.33,12.39-32v-448a78.79,78.79,0,0,0-.86-11.74c0-.27-.09-.54-.13-.81-.09-.54-.18-1.07-.28-1.59s-.21-1-.31-1.54c-.17-.76-.35-1.49-.53-2.21h0c-.17-.63-.35-1.25-.53-1.86h0c-.15-.48-.3-.94-.45-1.4s-.32-.9-.49-1.33-.33-.85-.5-1.26h0c-.17-.4-.35-.79-.53-1.18A26.37,26.37,0,0,0,55.87,6.1l-.62-.89c-.11-.14-.21-.28-.32-.41h0l-.54-.64h0c-.18-.2-.37-.39-.56-.57l-.28-.26L53,2.86h0c-.19-.14-.39-.27-.59-.39a5.78,5.78,0,0,0-1.22-.56,6.29,6.29,0,0,0-.62-.17A5.2,5.2,0,0,0,49.55,1.65Z"/><path class="cls-1" d="M6.1,12.39V49.55c0,.32,0,.64.05,1s0,.42.08.62a10.3,10.3,0,0,0,.29,1.22c.06.2.13.4.2.59h0c.08.19.15.38.24.58l.14.28c.09.19.19.38.29.56h0c.11.18.21.36.33.54h0c.06.11.14.21.21.32l.45.62h0l.25.3h0a3.48,3.48,0,0,0,.26.3h0c.08.1.17.19.26.29h0l.29.28h0l.28.28h0c.2.18.4.36.61.53h0c.21.18.43.35.65.51s.45.33.68.49l.72.45h0l1,.53h0c.37.18.75.36,1.14.53l.79.31.82.28.41.13a21.32,21.32,0,0,0,6,.86h230c9.07,0,16.43-5.55,16.43-12.39V12.39C269,5.55,261.61,0,252.54,0h-230a21.32,21.32,0,0,0-6,.86L16.09,1l-.82.28-.79.31c-.39.17-.77.35-1.14.53h0l-1,.53h0l-.72.45c-.23.16-.46.32-.68.49l-.65.5h0c-.21.17-.41.35-.61.53A16.55,16.55,0,0,0,8.38,6.07c-.15.21-.31.41-.45.62s-.15.21-.21.32h0l-.33.55h0c-.1.19-.2.38-.29.57L7,8.41c-.09.2-.16.39-.24.58h0c-.07.19-.14.39-.2.59a9.85,9.85,0,0,0-.29,1.22c0,.2-.06.41-.08.62S6.1,12.07,6.1,12.39Z"/><path class="cls-1" d="M49.55,512H12.39a5.2,5.2,0,0,1-1-.09,6.29,6.29,0,0,1-.62-.17,5.56,5.56,0,0,1-1.22-.56c-.2-.12-.4-.25-.59-.39H9l-.58-.47-.28-.26-.57-.57h0L7,508.85H7c-.11-.13-.21-.27-.32-.41s-.41-.58-.62-.89h0l-.3-.48h0c-.1-.16-.2-.32-.3-.5h0l-.29-.52h0c-.09-.18-.19-.36-.28-.55h0c-.1-.18-.19-.36-.28-.56h0c-.18-.39-.36-.78-.53-1.18h0c-.17-.41-.34-.83-.5-1.26s-.33-.88-.49-1.33-.3-.92-.45-1.4h0c-.18-.61-.36-1.23-.53-1.86h0c-.18-.72-.36-1.45-.53-2.21-.11-.51-.21-1-.31-1.54s-.19-1.05-.28-1.59l-.13-.81A78.79,78.79,0,0,1,0,480V32C0,14.33,5.55,0,12.39,0H49.55c6.84,0,12.39,14.33,12.39,32V480a78.79,78.79,0,0,1-.86,11.74c0,.27-.09.54-.13.81-.09.54-.18,1.07-.28,1.59s-.21,1-.31,1.54c-.17.76-.35,1.49-.53,2.21h0c-.17.63-.35,1.25-.53,1.86h0c-.15.48-.3.94-.45,1.4s-.32.9-.49,1.33-.33.85-.5,1.26h0c-.17.4-.35.79-.53,1.18a26.37,26.37,0,0,1-1.45,2.61l-.62.89c-.11.14-.21.28-.32.41h0l-.54.64h0c-.18.2-.37.39-.56.57l-.28.26-.58.47h0c-.19.14-.39.27-.59.39a5.78,5.78,0,0,1-1.22.56,6.29,6.29,0,0,1-.62.17A5.2,5.2,0,0,1,49.55,512Z"/><path class="cls-1" d="M6.1,501.26V464.1c0-.33,0-.64.05-1s0-.42.08-.62a10.46,10.46,0,0,1,.29-1.23c.06-.19.13-.39.2-.59h0c.08-.2.15-.39.24-.58s.09-.19.14-.29.19-.37.29-.56h0c.11-.18.21-.37.33-.55h0c.06-.11.14-.21.21-.32s.3-.42.45-.62h0l.25-.3h0a3.48,3.48,0,0,1,.26-.3h0c.08-.1.17-.19.26-.29h0l.29-.28h0l.28-.27h0c.2-.19.4-.36.61-.53h0l.65-.51.68-.48.72-.45h0l1-.53h0c.37-.18.75-.36,1.14-.53l.79-.31.82-.29.41-.12a21,21,0,0,1,6-.86h230c9.07,0,16.43,5.55,16.43,12.39v37.16c0,6.84-7.36,12.39-16.43,12.39h-230a21.32,21.32,0,0,1-6-.86l-.41-.13-.82-.28-.79-.32c-.39-.16-.77-.34-1.14-.53h0l-1-.52h0l-.72-.46c-.23-.15-.46-.31-.68-.48s-.44-.33-.65-.51h0c-.21-.17-.41-.35-.61-.53a15.35,15.35,0,0,1-1.34-1.46c-.15-.2-.31-.41-.45-.62s-.15-.21-.21-.31h0c-.12-.18-.22-.36-.33-.54h0c-.1-.18-.2-.37-.29-.56s-.1-.19-.14-.29-.16-.38-.24-.58h0c-.07-.19-.14-.39-.2-.59a10.3,10.3,0,0,1-.29-1.22c0-.21-.06-.42-.08-.62S6.1,501.58,6.1,501.26Z"/></g></g></svg>